<?xml version="1.0" encoding="utf-8"?>
<!-- Generator: Adobe Illustrator 16.0.0, SVG Export Plug-In . SVG Version: 6.00 Build 0)  -->
<!DOCTYPE svg PUBLIC "-//W3C//DTD SVG 1.1//EN" "http://www.w3.org/Graphics/SVG/1.1/DTD/svg11.dtd">
<svg version="1.1" id="Layer_1" xmlns="http://www.w3.org/2000/svg" xmlns:xlink="http://www.w3.org/1999/xlink" x="0px" y="0px"
	 width="70.871px" height="70.871px" viewBox="0 0 70.871 70.871" enable-background="new 0 0 70.871 70.871" xml:space="preserve">
<g>
	<g>
		<polygon fill="#FFFFFF" points="24.179,22.762 19.312,27.628 20.389,44.316 26.416,50.347 46.499,48.291 53.89,40.9 
			52.383,28.462 43.294,19.373 		"/>
		<g>
			<path fill="#F89C1C" d="M41.208,31.776c-0.766,0.002-1.455,0.307-1.959,0.809c-0.5,0.505-0.809,1.189-0.809,1.959
				c0,0.768,0.309,1.452,0.809,1.959c0.504,0.5,1.193,0.811,1.959,0.811c0.769,0,1.457-0.311,1.961-0.811
				c0.5-0.508,0.807-1.192,0.811-1.959c-0.004-0.77-0.311-1.454-0.811-1.959C42.665,32.083,41.976,31.778,41.208,31.776z"/>
			<path fill="#EC1C24" d="M28.346,34.671c0.535,0,1.109,0,1.73,0c0-3.427,0-7.014,0-8.655c0-0.317,0.147-0.428,0.344-0.428
				c0.325-0.003,0.797,0.298,0.981,0.469c0.626,0.58,1.134,1.414,1.134,2.241c0,1.558,0,3.011,0,4.46
				c0.821-1.709,1.641-3.419,2.462-5.129h-0.003c0.193-0.401,0.387-0.807,0.582-1.21c0.234-0.486,0.978-0.617,1.446-0.617
				c0.322,0,0.935,0,1.73,0c1.312,0,6.883,0,10.967,0l-12.21-12.21c-1.149-1.15-3.012-1.15-4.159,0l-9.863,9.859
				c0,3.227,0,7.193,0,11.221C25.598,34.671,25.991,34.671,28.346,34.671z M41.208,21.947c0.742,0,1.347,0.602,1.347,1.349
				c0,0.742-0.604,1.345-1.347,1.345c-0.743,0-1.347-0.603-1.347-1.345C39.861,22.549,40.464,21.947,41.208,21.947z"/>
			<path d="M13.585,33.353c-1.147,1.15-1.147,3.016,0,4.165l7.524,7.521c0-5.48,0-12.932,0-19.206L13.585,33.353z"/>
			<path fill="#009ADA" d="M23.488,37.851c0,3.488,0,6.695,0,9.568l9.863,9.859c1.147,1.15,3.009,1.15,4.159,0l10.449-10.447
				c-0.574,0-1.15,0-1.73,0c-5.981,0-13.36,0-17.157,0c-0.619,0-1.199,0-1.731,0c-0.703,0-1.312-0.518-0.976-1.209
				c0.097-0.205,0.196-0.412,0.296-0.621h0.001c0.56-1.172,1.122-2.34,1.684-3.51c0.578-1.201,1.154-2.439,1.73-3.641
				c0-0.018,0,0.014,0,0h-1.73H23.488z"/>
			<path fill="#F89C1C" d="M57.274,33.353l-5.728-5.724c-1.876,0-6.936,0-8.794,0c-2.191,0-4.095,0-5.051,0
				c-0.107,0-0.203,0-0.285,0l-8.334,17.373c0.09,0,0.19,0,0.284,0c3.843,0,12.626,0,18.689,0c0.595,0,1.173,0,1.731,0l7.488-7.484
				C58.424,36.369,58.424,34.503,57.274,33.353z M37.377,43.5c-0.974,0-1.762-0.791-1.762-1.762c0-0.975,0.788-1.768,1.762-1.768
				c0.976,0,1.765,0.793,1.765,1.768C39.142,42.708,38.353,43.5,37.377,43.5z M36.29,34.544c0-2.714,2.204-4.916,4.918-4.919
				c2.717,0.003,4.917,2.205,4.919,4.919c-0.002,2.715-2.202,4.915-4.919,4.915C38.49,39.458,36.29,37.259,36.29,34.544z
				 M45.039,43.5c-0.976,0-1.768-0.791-1.768-1.762c0-0.975,0.792-1.768,1.768-1.768c0.971,0,1.762,0.793,1.762,1.768
				C46.8,42.708,46.009,43.5,45.039,43.5z"/>
		</g>
	</g>
	<path xmlns="http://www.w3.org/2000/svg" fill="none" stroke-miterlimit="10" d="M57.55,33.409c1.119,1.119,1.119,2.934,0,4.049   L37.458,57.552c-1.119,1.121-2.935,1.121-4.054,0L13.312,37.458c-1.119-1.115-1.119-2.93,0-4.049l20.093-20.095   c1.119-1.118,2.935-1.118,4.054,0L57.55,33.409z"/>
</g>
</svg>
