<svg xmlns="http://www.w3.org/2000/svg" width="39" height="57"><path d="M29.076 56.373H3.208a2.145 2.145 0 01-2.144-2.145V4.193c0-1.184.959-2.144 2.144-2.144h25.869c1.184 0 2.143.959 2.143 2.144v50.036a2.145 2.145 0 01-2.144 2.144z" fill="#98ccef"/><path d="M30.895 56.918H3.127A2.69 2.69 0 01.439 54.23V2.77A2.691 2.691 0 013.127.082h27.767a2.691 2.691 0 012.688 2.688v51.46a2.691 2.691 0 01-2.687 2.688zM3.127 1.172a1.6 1.6 0 00-1.598 1.597v51.459a1.6 1.6 0 001.598 1.598h27.767c.879 0 1.598-.717 1.598-1.598V2.769c0-.88-.719-1.597-1.598-1.597H3.127z" fill="#0b1d3d"/><path fill="#fff" d="M.986 6.979h32.051v42.65H.986z"/><path d="M33.037 50.174H.986a.545.545 0 01-.546-.545V6.979c0-.301.244-.545.546-.545h32.051c.303 0 .547.244.547.545v42.65a.548.548 0 01-.547.545zM1.531 49.082h30.961V7.525H1.531v41.557z" fill="#0b1d3d"/><path fill="none" d="M14.361 4.024h5.299"/><path d="M19.66 4.569h-5.3a.545.545 0 110-1.091h5.3a.545.545 0 010 1.091z" fill="#0b1d3d"/><path fill="#fff" d="M16.209 52.023H19.4v1.188h-3.191z"/><path d="M19.402 53.756H16.21a.546.546 0 01-.546-.545v-1.188c0-.303.245-.547.546-.547h3.192c.301 0 .545.244.545.547v1.188a.543.543 0 01-.545.545zm-2.646-1.09h2.101v-.098h-2.101v.098z" fill="#0b1d3d"/><path d="M38.016 43.807H14.492a3.987 3.987 0 01-3.987-3.986V15.003a3.988 3.988 0 013.987-3.987h23.524v32.791z" fill="#cfc2e0"/><path d="M38.016 44.352H14.492a4.536 4.536 0 01-4.532-4.531V15.003a4.536 4.536 0 014.532-4.532h23.524c.303 0 .545.244.545.545v32.791a.544.544 0 01-.545.545zM14.492 11.561a3.445 3.445 0 00-3.441 3.441v24.816a3.445 3.445 0 003.441 3.441h22.979v-31.7l-22.979.002z" fill="#0b1d3d"/><g><path fill="#fff" d="M17.856 11.015h20.159v32.792H17.856z"/><path d="M38.016 44.352h-20.16a.545.545 0 01-.545-.545V11.016c0-.302.244-.546.545-.546h20.159c.303 0 .545.244.545.546v32.791a.542.542 0 01-.544.545zM18.403 43.26h19.068V11.561H18.403V43.26z" fill="#0b1d3d"/></g><g><path d="M33.588 30.186a2.833 2.833 0 00-3.947-.658l-.65.465c-2.371-.563-3.438-2.06-3.203-4.485l.65-.466a2.828 2.828 0 10-3.285-4.603l-.653.464-.031.022c-.445.317-.711.83-.707 1.375.012 2.484.799 9.495 8.953 12.508a1.684 1.684 0 001.564-.211l.65-.465a2.83 2.83 0 00.659-3.946z" fill="#cfc2e0"/><path d="M31.295 35.459c-.264 0-.523-.047-.771-.139-8.594-3.178-9.299-10.767-9.311-13.018a2.227 2.227 0 01.936-1.821l.686-.488a3.35 3.35 0 011.957-.628c1.09 0 2.117.528 2.75 1.414a3.36 3.36 0 01.582 2.516 3.343 3.343 0 01-1.369 2.191l-.443.316c-.115 1.932.705 3.083 2.568 3.598l.445-.316a3.384 3.384 0 014.707.786 3.382 3.382 0 01-.785 4.709l-.652.465c-.382.27-.831.415-1.3.415zm-6.504-15.004c-.477 0-.936.148-1.324.426l-.65.465c-.334.239-.514.587-.512.952.016 2.656.879 9.144 8.598 12 .127.047.258.068.393.068.24 0 .471-.07.666-.211l.652-.465a2.287 2.287 0 00-1.33-4.145 2.26 2.26 0 00-1.324.426l-.652.465a.547.547 0 01-.441.088c-2.629-.627-3.883-2.379-3.621-5.071.016-.156.1-.3.227-.391l.652-.465c.496-.354.824-.881.926-1.482a2.274 2.274 0 00-.395-1.703 2.302 2.302 0 00-1.865-.957z" fill="#0b1d3d"/></g><g><path fill="none" d="M36.061 11.015v5.611"/><path d="M36.061 17.17a.546.546 0 01-.545-.545v-5.61a.545.545 0 111.092 0v5.61a.547.547 0 01-.547.545z" fill="#0b1d3d"/></g><g><path fill="none" d="M34.115 11.015v8.896"/><path d="M34.115 20.455a.542.542 0 01-.545-.543v-8.895a.544.544 0 111.09 0v8.895a.547.547 0 01-.545.543z" fill="#0b1d3d"/></g></svg>