<svg xmlns="http://www.w3.org/2000/svg" width="45" height="56"><path d="M29.475 53.86l-.007-.004a21.105 21.105 0 01-12.521.438 18.427 18.427 0 01-1.683-.528 21.094 21.094 0 01-9.521-6.892c-4.376-5.58-5.868-13.227-3.282-20.393a21.19 21.19 0 016.418-9.146c4.633-3.848 10.799-5.644 16.952-4.661 1.313.201 2.622.54 3.916 1.004 9.506 3.435 15.077 12.928 13.918 22.556l.007.003a21.533 21.533 0 01-1.124 4.727c-2.269 6.293-7.201 10.867-13.073 12.896z" fill="#96c0e7"/><path d="M22.501 55.954c-1.954 0-3.903-.261-5.795-.777a19.418 19.418 0 01-1.755-.551 22.038 22.038 0 01-9.93-7.189C.263 41.37-1.017 33.419 1.6 26.17a22.184 22.184 0 016.694-9.538 22.279 22.279 0 0114.198-5.137c1.164 0 2.334.094 3.48.277 1.342.205 2.717.557 4.08 1.046 9.756 3.524 15.717 13.142 14.531 23.415a.88.88 0 01-.006.114 22.48 22.48 0 01-1.17 4.926c-2.286 6.343-7.256 11.246-13.637 13.453a.665.665 0 01-.101.028 21.99 21.99 0 01-7.168 1.2zm-.007-42.627a20.45 20.45 0 00-13.031 4.714 20.348 20.348 0 00-6.141 8.752C.92 33.443 2.095 40.739 6.463 46.31a20.245 20.245 0 009.111 6.596c.558.203 1.082.367 1.603.503a20.244 20.244 0 0011.99-.416.804.804 0 01.099-.028 20.274 20.274 0 0012.422-12.31 20.512 20.512 0 001.063-4.417c0-.038.002-.074.006-.111 1.14-9.463-4.339-18.339-13.321-21.585a20.073 20.073 0 00-3.742-.96 20.236 20.236 0 00-3.2-.255z" fill="#171617"/><path d="M31.996 24.594L30.313 27.3l-5.457 2.641-4.335-2.697-6.157-1.594-3.728.694-.518 3.262-2.439 2.844-2.387-4.396L7.9 23.859l1.51-3.967-.53-2.555c4.634-3.848 10.799-5.644 16.952-4.661l.053 4.501 3.178 3.539 2.933 3.878z" fill="#fff"/><path d="M7.679 33.364a.917.917 0 01-.805-.479l-2.386-4.396a.917.917 0 01.027-.92l2.56-4.121 1.383-3.635-.475-2.292a.913.913 0 01.311-.89 22.284 22.284 0 0114.2-5.137c1.162 0 2.333.094 3.48.277a.917.917 0 01.771.893l.049 4.156 2.948 3.283c.017.02.033.04.048.061l2.933 3.876a.916.916 0 01.049 1.036l-1.684 2.707a.922.922 0 01-.378.341l-5.456 2.639a.919.919 0 01-.882-.045l-4.219-2.622-5.825-1.508-2.892.538-.416 2.624a.93.93 0 01-.209.453l-2.438 2.846a.924.924 0 01-.694.315zm-1.33-5.281l1.499 2.762 1.404-1.639.477-3.007a.915.915 0 01.737-.756l3.728-.694a.931.931 0 01.397.015l6.158 1.594c.09.023.175.06.254.108l3.909 2.431 4.764-2.304 1.211-1.948-2.529-3.346-3.153-3.511a.918.918 0 01-.235-.601l-.043-3.713a19.99 19.99 0 00-2.431-.147 20.446 20.446 0 00-12.605 4.371l.417 2.008a.915.915 0 01-.042.512l-1.51 3.967a.773.773 0 01-.078.158l-2.329 3.74z" fill="#171617"/><path d="M29.475 53.86l-4.861-3.021 1.119-3.235 4.502-1.134 3.576-3.164 5.143-6.316 4.713-.754.007.003a21.498 21.498 0 01-1.124 4.726c-2.271 6.292-7.203 10.866-13.075 12.895z" fill="#fff"/><path d="M29.475 54.776a.912.912 0 01-.484-.139l-4.858-3.021a.917.917 0 01-.382-1.076l1.118-3.236a.91.91 0 01.641-.588l4.286-1.08 3.354-2.969 5.097-6.256a.903.903 0 01.563-.326l4.713-.756a.924.924 0 011.061 1.015 22.507 22.507 0 01-1.17 4.926c-2.286 6.343-7.256 11.246-13.637 13.453a.856.856 0 01-.302.053zm-3.757-4.328l3.864 2.402a20.272 20.272 0 0012.104-12.197 20.8 20.8 0 00.896-3.318l-3.14.504-4.922 6.043a.626.626 0 01-.104.108l-3.576 3.165a.897.897 0 01-.383.202l-4.021 1.013-.718 2.078z" fill="#171617"/><path d="M17.752 52.999l-.805 1.295a18.427 18.427 0 01-1.683-.528 21.094 21.094 0 01-9.521-6.892c.223-.059 3.857-.973 4.304-1.347.461-.382 3.213-5.168 3.213-5.168l5.425-1.067-.448 3.651-2.05 2.104.203 4.647 1.362 3.305z" fill="#fff"/><path d="M16.947 55.21a.956.956 0 01-.231-.029 20.226 20.226 0 01-1.764-.553 22.047 22.047 0 01-9.93-7.19.916.916 0 01.493-1.448l.057-.015c2.529-.646 3.615-1.024 3.89-1.159.383-.468 1.801-2.818 3.004-4.912a.903.903 0 01.617-.441l5.425-1.068a.919.919 0 011.086 1.011l-.448 3.652a.912.912 0 01-.253.526l-1.773 1.82.178 4.092 1.3 3.154a.917.917 0 01-.069.832l-.805 1.296a.92.92 0 01-.777.432zm-9.575-7.816a20.222 20.222 0 008.203 5.511c.329.12.646.226.958.321l.194-.313-1.183-2.869a.9.9 0 01-.067-.309l-.203-4.646a.921.921 0 01.259-.68l1.834-1.882.256-2.094-3.777.743c-1.758 3.043-2.838 4.744-3.213 5.056-.166.138-.489.409-3.261 1.162z" fill="#171617"/><path fill="none" d="M19.836 18.524V7.25"/><path d="M19.836 19.439a.915.915 0 01-.915-.915V7.25a.915.915 0 111.831 0v11.274a.917.917 0 01-.916.915z" fill="#171617"/><g><circle cx="19.837" cy="4.658" r="3.696" fill="#f69da5"/><path d="M19.836 9.27a4.616 4.616 0 01-4.611-4.611A4.617 4.617 0 0119.836.047c2.543 0 4.611 2.069 4.611 4.612S22.378 9.27 19.836 9.27zm0-7.394a2.785 2.785 0 00-2.781 2.782 2.783 2.783 0 002.781 2.78 2.784 2.784 0 002.781-2.78 2.787 2.787 0 00-2.781-2.782z" fill="#171617"/></g><g><path fill="none" d="M37.23 43.405V32.132"/><path d="M37.23 44.32a.915.915 0 01-.916-.915V32.132a.915.915 0 011.832 0v11.273a.917.917 0 01-.916.915z" fill="#171617"/></g><g><circle cx="37.23" cy="29.54" r="3.696" fill="#f69da5"/><path d="M37.23 34.151a4.616 4.616 0 01-4.611-4.611c0-2.543 2.068-4.612 4.611-4.612s4.61 2.068 4.61 4.612a4.616 4.616 0 01-4.61 4.611zm0-7.392c-1.533 0-2.781 1.248-2.781 2.781s1.248 2.781 2.781 2.781 2.78-1.248 2.78-2.781-1.247-2.781-2.78-2.781z" fill="#171617"/></g><g><path fill="none" d="M10.182 48.073V36.8"/><path d="M10.182 48.988a.916.916 0 01-.916-.915V36.802a.917.917 0 011.832 0v11.272a.915.915 0 01-.916.914z" fill="#171617"/></g><g><circle cx="10.181" cy="34.207" r="3.696" fill="#f69da5"/><path d="M10.182 38.819c-2.542 0-4.611-2.07-4.611-4.613s2.069-4.611 4.611-4.611c2.543 0 4.612 2.068 4.612 4.611s-2.069 4.613-4.612 4.613zm0-7.394a2.784 2.784 0 00-2.78 2.781 2.785 2.785 0 002.78 2.782c1.534 0 2.781-1.249 2.781-2.782s-1.247-2.781-2.781-2.781z" fill="#171617"/></g></svg>