<?xml version="1.0" encoding="utf-8"?>
<!-- Generator: Adobe Illustrator 16.0.0, SVG Export Plug-In . SVG Version: 6.00 Build 0)  -->
<!DOCTYPE svg PUBLIC "-//W3C//DTD SVG 1.1//EN" "http://www.w3.org/Graphics/SVG/1.1/DTD/svg11.dtd">
<svg version="1.1" id="Layer_1" xmlns="http://www.w3.org/2000/svg" xmlns:xlink="http://www.w3.org/1999/xlink" x="0px" y="0px"
	 width="70.87px" height="70.87px" viewBox="0 0 70.87 70.87" enable-background="new 0 0 70.87 70.87" xml:space="preserve">
<g>
	<g>
		<path fill="#98CCEE" d="M57.973,23.33H12.05c-0.655,0-1.187,0.53-1.187,1.187v25.48h48.295V24.515
			C59.158,23.86,58.627,23.33,57.973,23.33z"/>
	</g>
	<g>
		<path fill="#F3F3F3" d="M44.951,57.995h-2.735l-0.672-3.764h-5.797h-5.798l-0.672,3.764h-2.735c-0.415,0-0.755,0.339-0.755,0.754
			v0.589c0,0.414,0.34,0.755,0.755,0.755h3.668h5.537h5.534h3.67c0.414,0,0.754-0.341,0.754-0.755v-0.589
			C45.706,58.333,45.367,57.995,44.951,57.995z"/>
		<path fill="#0D1E3D" d="M44.951,60.685H26.543c-0.743,0-1.348-0.604-1.348-1.348v-0.591c0-0.741,0.604-1.348,1.348-1.348h2.238
			l0.586-3.273c0.051-0.283,0.296-0.489,0.584-0.489h11.594c0.288,0,0.533,0.206,0.584,0.489l0.585,3.273h2.237
			c0.744,0,1.349,0.604,1.349,1.348v0.591C46.3,60.081,45.695,60.685,44.951,60.685z M26.542,58.589c-0.087,0-0.16,0.07-0.16,0.157
			v0.591c0,0.088,0.073,0.158,0.16,0.158h18.409c0.087,0,0.158-0.07,0.158-0.158v-0.591c0-0.087-0.071-0.157-0.158-0.157h-2.735
			c-0.288,0-0.534-0.207-0.585-0.49l-0.585-3.272H30.447l-0.584,3.272c-0.054,0.283-0.299,0.49-0.586,0.49H26.542z"/>
	</g>
	<g>
		<path fill="#F3F3F3" d="M10.863,53.498c0,0.656,0.528,1.188,1.187,1.188h47.396c0.654,0,1.188-0.528,1.188-1.188v-3.5H10.863
			V53.498L10.863,53.498z"/>
		<path fill="#0D1E3D" d="M59.445,55.278H12.049c-0.979,0-1.779-0.8-1.779-1.78v-3.499c0-0.329,0.27-0.594,0.595-0.594h49.77
			c0.327,0,0.594,0.267,0.594,0.594v3.499C61.225,54.479,60.427,55.278,59.445,55.278z M11.457,50.592v2.903
			c0,0.327,0.267,0.594,0.593,0.594h47.396c0.326,0,0.595-0.268,0.595-0.594v-2.903H11.457z"/>
	</g>
	<g>
		<path fill="#0D1E3D" d="M60.632,50.592H10.863c-0.328,0-0.596-0.27-0.596-0.597V22.964c0-0.98,0.799-1.779,1.779-1.779h47.396
			c0.979,0,1.778,0.798,1.778,1.779v27.032C61.225,50.326,60.959,50.592,60.632,50.592z M11.457,49.404h48.579V22.965
			c0-0.326-0.269-0.592-0.591-0.592H12.049c-0.326,0-0.593,0.266-0.593,0.592L11.457,49.404L11.457,49.404z"/>
	</g>
	<g>
		<polygon fill="#FFFFFF" points="37.688,36.579 35.38,37.529 34.429,39.835 30.465,32.614 		"/>
		<path fill="#0D1E3D" d="M34.429,40.43c-0.218,0-0.417-0.117-0.521-0.311l-3.967-7.223c-0.125-0.231-0.086-0.52,0.103-0.705
			c0.188-0.188,0.476-0.228,0.706-0.102l7.223,3.964c0.2,0.111,0.319,0.326,0.311,0.555c-0.016,0.229-0.155,0.43-0.366,0.517
			l-2.079,0.856l-0.854,2.078c-0.089,0.211-0.289,0.354-0.519,0.366C34.449,40.43,34.439,40.43,34.429,40.43z M31.966,34.116
			l2.387,4.348l0.479-1.161c0.061-0.146,0.177-0.262,0.323-0.322l1.158-0.479L31.966,34.116z"/>
	</g>
	<g>
		<line fill="none" x1="35.38" y1="37.529" x2="38.939" y2="41.087"/>
		<path fill="#0D1E3D" d="M38.939,41.683c-0.151,0-0.307-0.061-0.422-0.175l-3.561-3.562c-0.229-0.23-0.229-0.607,0-0.84
			c0.23-0.231,0.607-0.23,0.841,0l3.562,3.561c0.229,0.231,0.229,0.607,0,0.842C39.242,41.625,39.091,41.683,38.939,41.683z"/>
	</g>
	<g>
		<path fill="#0D1E3D" d="M40.977,14.733c-0.151,0-0.306-0.058-0.42-0.174c-1.285-1.284-2.992-1.991-4.81-1.991
			c-1.816,0-3.523,0.707-4.812,1.991c-0.229,0.231-0.605,0.231-0.84,0c-0.231-0.232-0.231-0.608,0-0.84
			c1.509-1.508,3.515-2.339,5.646-2.339c2.134,0,4.14,0.831,5.647,2.339c0.229,0.231,0.229,0.607,0,0.84
			C41.279,14.675,41.127,14.733,40.977,14.733z"/>
	</g>
	<g>
		<path fill="#0D1E3D" d="M39.197,16.51c-0.151,0-0.307-0.059-0.42-0.174c-0.812-0.81-1.887-1.256-3.029-1.256
			c-1.146,0-2.223,0.446-3.031,1.256c-0.229,0.232-0.606,0.232-0.84,0c-0.229-0.232-0.229-0.607,0-0.84
			c1.033-1.034,2.408-1.603,3.871-1.603c1.461,0,2.835,0.569,3.869,1.603c0.23,0.232,0.23,0.607,0,0.84
			C39.502,16.452,39.352,16.51,39.197,16.51z"/>
	</g>
	<g>
		<path fill="#0D1E3D" d="M37.332,18.377c-0.15,0-0.307-0.059-0.422-0.174c-0.62-0.622-1.704-0.623-2.327,0
			c-0.232,0.232-0.608,0.231-0.841-0.001c-0.23-0.232-0.229-0.608,0-0.84c0.537-0.534,1.25-0.829,2.006-0.829
			c0.757,0,1.468,0.295,2.004,0.83c0.23,0.231,0.23,0.607,0,0.84C37.636,18.318,37.484,18.377,37.332,18.377z"/>
	</g>
	<g>
		<path fill="#0D1E3D" d="M39.197,16.51c-0.151,0-0.307-0.059-0.42-0.174c-0.812-0.81-1.887-1.256-3.029-1.256
			c-1.146,0-2.223,0.446-3.031,1.256c-0.229,0.232-0.606,0.232-0.84,0c-0.229-0.232-0.229-0.607,0-0.84
			c1.033-1.034,2.408-1.603,3.871-1.603c1.461,0,2.835,0.569,3.869,1.603c0.23,0.232,0.23,0.607,0,0.84
			C39.502,16.452,39.352,16.51,39.197,16.51z"/>
	</g>
	<g>
		<path fill="#0D1E3D" d="M37.332,18.377c-0.15,0-0.307-0.059-0.422-0.174c-0.62-0.622-1.704-0.623-2.327,0
			c-0.232,0.232-0.608,0.231-0.841-0.001c-0.23-0.232-0.229-0.608,0-0.84c0.537-0.534,1.25-0.829,2.006-0.829
			c0.757,0,1.468,0.295,2.004,0.83c0.23,0.231,0.23,0.607,0,0.84C37.636,18.318,37.484,18.377,37.332,18.377z"/>
	</g>
</g>
</svg>
