<?xml version="1.0" encoding="utf-8"?>
<!-- Generator: Adobe Illustrator 16.0.0, SVG Export Plug-In . SVG Version: 6.00 Build 0)  -->
<!DOCTYPE svg PUBLIC "-//W3C//DTD SVG 1.1//EN" "http://www.w3.org/Graphics/SVG/1.1/DTD/svg11.dtd">
<svg version="1.1" id="Layer_1" xmlns="http://www.w3.org/2000/svg" xmlns:xlink="http://www.w3.org/1999/xlink" x="0px" y="0px"
	 width="70.87px" height="70.87px" viewBox="0 0 70.87 70.87" enable-background="new 0 0 70.87 70.87" xml:space="preserve">
<g>
	<g>
		<rect x="29.979" y="9.372" fill="#98CCEE" width="11.489" height="11.489"/>
	</g>
	<g>
		<path fill="#0D1E3D" d="M41.469,21.515H29.979c-0.361,0-0.654-0.293-0.654-0.654V9.372c0-0.361,0.293-0.654,0.654-0.654h11.489
			c0.361,0,0.654,0.293,0.654,0.654V20.86C42.123,21.222,41.83,21.515,41.469,21.515z M30.634,20.207h10.181V10.026H30.634V20.207z"
			/>
	</g>
	<g>
		<polygon fill="#FFFFFF" points="38.648,14.108 36.732,14.108 36.732,12.191 34.715,12.191 34.715,14.108 32.799,14.108 
			32.799,16.124 34.715,16.124 34.715,18.041 36.732,18.041 36.732,16.124 38.648,16.124 		"/>
	</g>
	<g>
		<rect x="22.537" y="20.86" fill="#FFFFFF" width="26.374" height="39.234"/>
	</g>
	<g>
		<path fill="#0D1E3D" d="M48.91,60.749H22.537c-0.361,0-0.654-0.293-0.654-0.654V20.86c0-0.361,0.293-0.654,0.654-0.654H48.91
			c0.361,0,0.654,0.293,0.654,0.654v39.234C49.564,60.456,49.271,60.749,48.91,60.749z M23.19,59.44h25.065V21.515H23.19V59.44z"/>
	</g>
	<g>
		<rect x="12.27" y="33.865" fill="#FFFFFF" width="10.267" height="26.229"/>
	</g>
	<g>
		<path fill="#0D1E3D" d="M22.537,60.749H12.27c-0.361,0-0.654-0.293-0.654-0.654V33.865c0-0.361,0.293-0.654,0.654-0.654h10.267
			c0.362,0,0.654,0.293,0.654,0.654v26.229C23.19,60.456,22.898,60.749,22.537,60.749z M12.923,59.44h8.959V34.52h-8.959V59.44z"/>
	</g>
	<g>
		<rect x="42.23" y="25.602" fill="#81C3EB" width="2.364" height="3.58"/>
	</g>
	<g>
		<path fill="#0D1E3D" d="M44.595,29.835H42.23c-0.361,0-0.654-0.293-0.654-0.654v-3.58c0-0.361,0.293-0.654,0.654-0.654h2.364
			c0.361,0,0.654,0.293,0.654,0.654v3.58C45.249,29.542,44.956,29.835,44.595,29.835z M42.885,28.527h1.057v-2.272h-1.057V28.527z"
			/>
	</g>
	<g>
		<rect x="37.104" y="25.602" fill="#81C3EB" width="2.365" height="3.58"/>
	</g>
	<g>
		<path fill="#0D1E3D" d="M39.469,29.835h-2.365c-0.36,0-0.653-0.293-0.653-0.654v-3.58c0-0.361,0.293-0.654,0.653-0.654h2.365
			c0.361,0,0.654,0.293,0.654,0.654v3.58C40.123,29.542,39.83,29.835,39.469,29.835z M37.758,28.527h1.057v-2.272h-1.057V28.527z"/>
	</g>
	<g>
		<rect x="31.978" y="25.602" fill="#81C3EB" width="2.365" height="3.58"/>
	</g>
	<g>
		<path fill="#0D1E3D" d="M34.343,29.835h-2.365c-0.361,0-0.654-0.293-0.654-0.654v-3.58c0-0.361,0.293-0.654,0.654-0.654h2.365
			c0.361,0,0.654,0.293,0.654,0.654v3.58C34.997,29.542,34.704,29.835,34.343,29.835z M32.632,28.527h1.056v-2.272h-1.056V28.527z"
			/>
	</g>
	<g>
		<rect x="26.853" y="25.602" fill="#81C3EB" width="2.364" height="3.58"/>
	</g>
	<g>
		<path fill="#0D1E3D" d="M29.217,29.835h-2.364c-0.361,0-0.654-0.293-0.654-0.654v-3.58c0-0.361,0.293-0.654,0.654-0.654h2.364
			c0.361,0,0.654,0.293,0.654,0.654v3.58C29.871,29.542,29.578,29.835,29.217,29.835z M27.506,28.527h1.056v-2.272h-1.056V28.527z"
			/>
	</g>
	<g>
		<rect x="42.23" y="32.076" fill="#81C3EB" width="2.364" height="3.581"/>
	</g>
	<g>
		<path fill="#0D1E3D" d="M44.595,36.31H42.23c-0.361,0-0.654-0.293-0.654-0.653v-3.581c0-0.361,0.293-0.654,0.654-0.654h2.364
			c0.361,0,0.654,0.293,0.654,0.654v3.581C45.249,36.017,44.956,36.31,44.595,36.31z M42.885,35.002h1.057v-2.272h-1.057V35.002z"/>
	</g>
	<g>
		<rect x="37.104" y="32.076" fill="#81C3EB" width="2.365" height="3.581"/>
	</g>
	<g>
		<path fill="#0D1E3D" d="M39.469,36.31h-2.365c-0.36,0-0.653-0.293-0.653-0.653v-3.581c0-0.361,0.293-0.654,0.653-0.654h2.365
			c0.361,0,0.654,0.293,0.654,0.654v3.581C40.123,36.017,39.83,36.31,39.469,36.31z M37.758,35.002h1.057v-2.272h-1.057V35.002z"/>
	</g>
	<g>
		<rect x="31.978" y="32.076" fill="#81C3EB" width="2.365" height="3.581"/>
	</g>
	<g>
		<path fill="#0D1E3D" d="M34.343,36.31h-2.365c-0.361,0-0.654-0.293-0.654-0.653v-3.581c0-0.361,0.293-0.654,0.654-0.654h2.365
			c0.361,0,0.654,0.293,0.654,0.654v3.581C34.997,36.017,34.704,36.31,34.343,36.31z M32.632,35.002h1.056v-2.272h-1.056V35.002z"/>
	</g>
	<g>
		<rect x="26.853" y="32.076" fill="#81C3EB" width="2.364" height="3.581"/>
	</g>
	<g>
		<path fill="#0D1E3D" d="M29.217,36.31h-2.364c-0.361,0-0.654-0.293-0.654-0.653v-3.581c0-0.361,0.293-0.654,0.654-0.654h2.364
			c0.361,0,0.654,0.293,0.654,0.654v3.581C29.871,36.017,29.578,36.31,29.217,36.31z M27.506,35.002h1.056v-2.272h-1.056V35.002z"/>
	</g>
	<g>
		<rect x="42.23" y="38.55" fill="#81C3EB" width="2.364" height="3.58"/>
	</g>
	<g>
		<path fill="#0D1E3D" d="M44.595,42.784H42.23c-0.361,0-0.654-0.293-0.654-0.654v-3.58c0-0.361,0.293-0.654,0.654-0.654h2.364
			c0.361,0,0.654,0.293,0.654,0.654v3.58C45.249,42.491,44.956,42.784,44.595,42.784z M42.885,41.476h1.057v-2.271h-1.057V41.476z"
			/>
	</g>
	<g>
		<rect x="37.104" y="38.55" fill="#81C3EB" width="2.365" height="3.58"/>
	</g>
	<g>
		<path fill="#0D1E3D" d="M39.469,42.784h-2.365c-0.36,0-0.653-0.293-0.653-0.654v-3.58c0-0.361,0.293-0.654,0.653-0.654h2.365
			c0.361,0,0.654,0.293,0.654,0.654v3.58C40.123,42.491,39.83,42.784,39.469,42.784z M37.758,41.476h1.057v-2.271h-1.057V41.476z"/>
	</g>
	<g>
		<rect x="31.978" y="38.55" fill="#81C3EB" width="2.365" height="3.58"/>
	</g>
	<g>
		<path fill="#0D1E3D" d="M34.343,42.784h-2.365c-0.361,0-0.654-0.293-0.654-0.654v-3.58c0-0.361,0.293-0.654,0.654-0.654h2.365
			c0.361,0,0.654,0.293,0.654,0.654v3.58C34.997,42.491,34.704,42.784,34.343,42.784z M32.632,41.476h1.056v-2.271h-1.056V41.476z"
			/>
	</g>
	<g>
		<rect x="26.853" y="38.55" fill="#81C3EB" width="2.364" height="3.58"/>
	</g>
	<g>
		<path fill="#0D1E3D" d="M29.217,42.784h-2.364c-0.361,0-0.654-0.293-0.654-0.654v-3.58c0-0.361,0.293-0.654,0.654-0.654h2.364
			c0.361,0,0.654,0.293,0.654,0.654v3.58C29.871,42.491,29.578,42.784,29.217,42.784z M27.506,41.476h1.056v-2.271h-1.056V41.476z"
			/>
	</g>
	<g>
		<rect x="42.23" y="45.024" fill="#81C3EB" width="2.364" height="3.58"/>
	</g>
	<g>
		<path fill="#0D1E3D" d="M44.595,49.259H42.23c-0.361,0-0.654-0.293-0.654-0.654v-3.58c0-0.361,0.293-0.654,0.654-0.654h2.364
			c0.361,0,0.654,0.293,0.654,0.654v3.58C45.249,48.966,44.956,49.259,44.595,49.259z M42.885,47.95h1.057v-2.271h-1.057V47.95z"/>
	</g>
	<g>
		<rect x="37.104" y="45.024" fill="#81C3EB" width="2.365" height="3.58"/>
	</g>
	<g>
		<path fill="#0D1E3D" d="M39.469,49.259h-2.365c-0.36,0-0.653-0.293-0.653-0.654v-3.58c0-0.361,0.293-0.654,0.653-0.654h2.365
			c0.361,0,0.654,0.293,0.654,0.654v3.58C40.123,48.966,39.83,49.259,39.469,49.259z M37.758,47.95h1.057v-2.271h-1.057V47.95z"/>
	</g>
	<g>
		<rect x="31.978" y="45.024" fill="#81C3EB" width="2.365" height="3.58"/>
	</g>
	<g>
		<path fill="#0D1E3D" d="M34.343,49.259h-2.365c-0.361,0-0.654-0.293-0.654-0.654v-3.58c0-0.361,0.293-0.654,0.654-0.654h2.365
			c0.361,0,0.654,0.293,0.654,0.654v3.58C34.997,48.966,34.704,49.259,34.343,49.259z M32.632,47.95h1.056v-2.271h-1.056V47.95z"/>
	</g>
	<g>
		<rect x="26.853" y="45.024" fill="#81C3EB" width="2.364" height="3.58"/>
	</g>
	<g>
		<path fill="#0D1E3D" d="M29.217,49.259h-2.364c-0.361,0-0.654-0.293-0.654-0.654v-3.58c0-0.361,0.293-0.654,0.654-0.654h2.364
			c0.361,0,0.654,0.293,0.654,0.654v3.58C29.871,48.966,29.578,49.259,29.217,49.259z M27.506,47.95h1.056v-2.271h-1.056V47.95z"/>
	</g>
	<g>
		<rect x="16.221" y="38.55" fill="#81C3EB" width="2.365" height="3.58"/>
	</g>
	<g>
		<path fill="#0D1E3D" d="M18.585,42.784h-2.365c-0.361,0-0.654-0.293-0.654-0.654v-3.58c0-0.361,0.293-0.654,0.654-0.654h2.365
			c0.361,0,0.654,0.293,0.654,0.654v3.58C19.24,42.491,18.947,42.784,18.585,42.784z M16.875,41.476h1.057v-2.271h-1.057V41.476z"/>
	</g>
	<g>
		<rect x="16.221" y="45.024" fill="#81C3EB" width="2.365" height="3.58"/>
	</g>
	<g>
		<path fill="#0D1E3D" d="M18.585,49.259h-2.365c-0.361,0-0.654-0.293-0.654-0.654v-3.58c0-0.361,0.293-0.654,0.654-0.654h2.365
			c0.361,0,0.654,0.293,0.654,0.654v3.58C19.24,48.966,18.947,49.259,18.585,49.259z M16.875,47.95h1.057v-2.271h-1.057V47.95z"/>
	</g>
	<g>
		<rect x="16.221" y="51.499" fill="#81C3EB" width="2.365" height="3.58"/>
	</g>
	<g>
		<path fill="#0D1E3D" d="M18.585,55.733h-2.365c-0.361,0-0.654-0.293-0.654-0.654v-3.58c0-0.361,0.293-0.654,0.654-0.654h2.365
			c0.361,0,0.654,0.293,0.654,0.654v3.58C19.24,55.44,18.947,55.733,18.585,55.733z M16.875,54.425h1.057v-2.271h-1.057V54.425z"/>
	</g>
	<g>
		<rect x="48.91" y="33.865" fill="#FFFFFF" width="10.268" height="26.229"/>
	</g>
	<g>
		<path fill="#0D1E3D" d="M59.178,60.749H48.91c-0.361,0-0.654-0.293-0.654-0.654V33.865c0-0.361,0.293-0.654,0.654-0.654h10.268
			c0.361,0,0.654,0.293,0.654,0.654v26.229C59.832,60.456,59.539,60.749,59.178,60.749z M49.564,59.44h8.959V34.52h-8.959V59.44z"/>
	</g>
	<g>
		<rect x="52.861" y="38.55" fill="#81C3EB" width="2.365" height="3.58"/>
	</g>
	<g>
		<path fill="#0D1E3D" d="M55.227,42.784h-2.365c-0.361,0-0.654-0.293-0.654-0.654v-3.58c0-0.361,0.293-0.654,0.654-0.654h2.365
			c0.361,0,0.654,0.293,0.654,0.654v3.58C55.881,42.491,55.588,42.784,55.227,42.784z M53.516,41.476h1.057v-2.271h-1.057V41.476z"
			/>
	</g>
	<g>
		<rect x="52.861" y="45.024" fill="#81C3EB" width="2.365" height="3.58"/>
	</g>
	<g>
		<path fill="#0D1E3D" d="M55.227,49.259h-2.365c-0.361,0-0.654-0.293-0.654-0.654v-3.58c0-0.361,0.293-0.654,0.654-0.654h2.365
			c0.361,0,0.654,0.293,0.654,0.654v3.58C55.881,48.966,55.588,49.259,55.227,49.259z M53.516,47.95h1.057v-2.271h-1.057V47.95z"/>
	</g>
	<g>
		<rect x="52.861" y="51.499" fill="#81C3EB" width="2.365" height="3.58"/>
	</g>
	<g>
		<path fill="#0D1E3D" d="M55.227,55.733h-2.365c-0.361,0-0.654-0.293-0.654-0.654v-3.58c0-0.361,0.293-0.654,0.654-0.654h2.365
			c0.361,0,0.654,0.293,0.654,0.654v3.58C55.881,55.44,55.588,55.733,55.227,55.733z M53.516,54.425h1.057v-2.271h-1.057V54.425z"/>
	</g>
	<g>
		<rect x="31.249" y="53.948" fill="#FFFFFF" width="4.475" height="6.146"/>
	</g>
	<g>
		<path fill="#0D1E3D" d="M35.724,60.749h-4.475c-0.361,0-0.654-0.293-0.654-0.654v-6.146c0-0.36,0.293-0.653,0.654-0.653h4.475
			c0.361,0,0.654,0.293,0.654,0.653v6.146C36.378,60.456,36.085,60.749,35.724,60.749z M31.903,59.44h3.167v-4.838h-3.167V59.44z"/>
	</g>
	<g>
		<rect x="35.724" y="53.948" fill="#FFFFFF" width="4.474" height="6.146"/>
	</g>
	<g>
		<path fill="#0D1E3D" d="M40.197,60.749h-4.474c-0.362,0-0.654-0.293-0.654-0.654v-6.146c0-0.36,0.292-0.653,0.654-0.653h4.474
			c0.361,0,0.654,0.293,0.654,0.653v6.146C40.852,60.456,40.559,60.749,40.197,60.749z M36.377,59.44h3.167v-4.838h-3.167V59.44z"/>
	</g>
	<g>
		<line fill="#FFFFFF" x1="37.275" y1="56.72" x2="37.275" y2="57.323"/>
		<rect x="36.622" y="56.72" fill="#1B1B1B" width="1.308" height="0.604"/>
	</g>
	<g>
		<path fill="#0D1E3D" d="M37.275,57.978c-0.36,0-0.653-0.293-0.653-0.654V56.72c0-0.361,0.293-0.653,0.653-0.653
			c0.361,0,0.654,0.292,0.654,0.653v0.604C37.93,57.685,37.637,57.978,37.275,57.978z"/>
	</g>
	<g>
		<line fill="#FFFFFF" x1="34.171" y1="57.323" x2="34.171" y2="56.72"/>
		<rect x="33.517" y="56.72" fill="#1B1B1B" width="1.308" height="0.604"/>
	</g>
	<g>
		<path fill="#0D1E3D" d="M34.171,57.978c-0.361,0-0.654-0.293-0.654-0.654V56.72c0-0.361,0.293-0.653,0.654-0.653
			c0.361,0,0.654,0.292,0.654,0.653v0.604C34.825,57.685,34.532,57.978,34.171,57.978z"/>
	</g>
	<g>
		<path fill="#0D1E3D" d="M64.58,60.749H6.867c-0.361,0-0.654-0.293-0.654-0.654s0.293-0.654,0.654-0.654H64.58
			c0.361,0,0.654,0.293,0.654,0.654S64.941,60.749,64.58,60.749z"/>
	</g>
</g>
</svg>
