<svg xmlns="http://www.w3.org/2000/svg" width="58" height="50"><path d="M39.213 46.719h-3.037l-.744-4.176H22.568l-.746 4.176h-3.037a.838.838 0 00-.836.836v.654c0 .459.376.836.836.836h20.426a.838.838 0 00.836-.836v-.654a.836.836 0 00-.834-.836z" fill="#c1d1ec"/><path d="M39.213 49.977H18.785a1.768 1.768 0 01-1.766-1.766v-.654c0-.975.792-1.766 1.766-1.766h2.257l.61-3.41a.93.93 0 01.916-.766h12.863a.93.93 0 01.916.766l.609 3.41h2.258a1.77 1.77 0 011.767 1.766v.654a1.771 1.771 0 01-1.768 1.766zM18.88 48.115h20.239v-.465h-2.943a.931.931 0 01-.916-.768l-.607-3.41H23.345l-.609 3.41a.931.931 0 01-.916.768h-2.942v.465h.002z" fill="#171617"/><path d="M55.295 43.045H2.705a1.315 1.315 0 01-1.315-1.316V7.852c0-.726.589-1.315 1.315-1.315h52.59c.727 0 1.314.589 1.314 1.315v33.877c0 .728-.588 1.316-1.314 1.316z" fill="#c1d1ec"/><path d="M55.295 43.975H2.705a2.247 2.247 0 01-2.246-2.246V7.851a2.248 2.248 0 012.246-2.246h52.59a2.248 2.248 0 012.246 2.246v33.878a2.248 2.248 0 01-2.246 2.246zM2.705 7.465a.385.385 0 00-.385.385v33.878c0 .213.173.387.385.387h52.59a.386.386 0 00.385-.387V7.851a.385.385 0 00-.385-.385H2.705z" fill="#171617"/><path d="M56.609 37.846H1.388V7.852c0-.726.589-1.315 1.315-1.315h52.59c.728 0 1.315.589 1.315 1.315l.001 29.994z" fill="#fff"/><path d="M56.609 38.775H1.388a.93.93 0 01-.93-.93V7.851a2.248 2.248 0 012.246-2.246h52.59a2.248 2.248 0 012.246 2.246v29.993a.931.931 0 01-.931.931zM2.318 36.916H55.68V7.852a.386.386 0 00-.387-.385H2.704a.385.385 0 00-.385.385v29.064h-.001z" fill="#171617"/><g><path fill="#e1e1ec" d="M47.248 12.818H10.634L28.941.953z"/><path d="M47.256 13.748H10.633a.93.93 0 01-.507-1.71L28.434.171a.932.932 0 011.012 0l18.23 11.816a.928.928 0 01.509.83.926.926 0 01-.929.931zm-33.477-1.859h30.324L28.941 2.062l-15.162 9.827z" fill="#171617"/></g><g><path fill="#e1e1ec" d="M15.788 12.818h4.002v15.865h-4.002z"/><path d="M19.79 29.613h-4.002a.931.931 0 01-.93-.932V12.817a.93.93 0 01.93-.93h4.002a.93.93 0 01.93.93v15.864a.932.932 0 01-.93.932zm-3.073-1.861h2.142V13.749h-2.142v14.003z" fill="#171617"/></g><g><path fill="#e1e1ec" d="M26.813 12.818h4.002v15.865h-4.002z"/><path d="M30.814 29.613h-4.002a.931.931 0 01-.93-.932V12.817a.93.93 0 01.93-.93h4.002a.93.93 0 01.93.93v15.864a.931.931 0 01-.93.932zm-3.072-1.861h2.141V13.749h-2.141v14.003z" fill="#171617"/></g><g><path fill="#e1e1ec" d="M37.838 12.818h4.002v15.865h-4.002z"/><path d="M41.838 29.613h-4.002a.932.932 0 01-.93-.932V12.817a.93.93 0 01.93-.93h4.002c.515 0 .932.417.932.93v15.864a.931.931 0 01-.932.932zm-3.07-1.861h2.142V13.749h-2.142v14.003z" fill="#171617"/></g><g><path fill="#e1e1ec" d="M10.506 28.684h36.613v3.773H10.506z"/><path d="M47.119 33.387H10.506a.93.93 0 01-.931-.93v-3.773c0-.514.417-.932.931-.932h36.613c.514 0 .93.418.93.932v3.773a.93.93 0 01-.93.93zm-35.682-1.862H46.19v-1.912H11.437v1.912z" fill="#171617"/></g></svg>