<svg xmlns="http://www.w3.org/2000/svg" width="40" height="57"><path d="M15.328 25.895s.907-1.413.828-2.778h7.688s.143 2.032.828 2.778l-4.673 2.871-4.671-2.871z" fill="#fff"/><path d="M20 29.424a.661.661 0 01-.345-.098l-4.672-2.871a.66.66 0 01-.209-.914c.007-.014.79-1.257.726-2.389a.655.655 0 01.657-.694h7.689c.346 0 .631.268.654.61.055.751.293 1.987.656 2.381a.666.666 0 01.168.535.665.665 0 01-.307.471l-4.674 2.871a.65.65 0 01-.343.098zm-3.797-3.764L20 27.994l3.764-2.313c-.287-.619-.436-1.375-.51-1.909h-6.466c-.091.742-.363 1.427-.585 1.888z" fill="#0b1d3d"/><path d="M39.061 39.518c0-5.914-4.84-10.752-10.752-10.752H11.692C5.779 28.766.94 33.604.94 39.518v16.545h38.118l.003-16.545z" fill="#fff"/><path d="M39.061 56.719H.94a.658.658 0 01-.657-.656V39.518c0-6.291 5.118-11.41 11.409-11.41h16.616c6.291 0 11.408 5.119 11.408 11.41v16.545a.656.656 0 01-.655.656zM1.597 55.404h36.805V39.518c0-5.566-4.527-10.094-10.094-10.094H11.692c-5.566 0-10.095 4.527-10.095 10.094v15.886z" fill="#0b1d3d"/><path fill="#fff" d="M15.328 25.895l-3.881 3.203 4.724 3.578L20 29.457v-.691z"/><path d="M16.171 33.332a.645.645 0 01-.396-.133l-4.725-3.578a.659.659 0 01-.022-1.031l3.88-3.203a.658.658 0 01.763-.053l4.673 2.871a.659.659 0 01.313.561v.691a.655.655 0 01-.234.502l-3.828 3.219a.656.656 0 01-.424.154zm-3.664-4.256l3.644 2.758 3.191-2.701-3.958-2.434-2.877 2.377z" fill="#0b1d3d"/><path fill="#fff" d="M24.672 25.895l3.879 3.203-4.723 3.578L20 29.457v-.691z"/><path d="M23.828 33.332a.656.656 0 01-.424-.154l-3.828-3.219a.655.655 0 01-.234-.502v-.691a.66.66 0 01.313-.561l4.673-2.871a.66.66 0 01.764.053l3.879 3.205a.657.657 0 01-.022 1.031l-4.725 3.576a.647.647 0 01-.396.133zm-3.17-4.182l3.19 2.684 3.645-2.758-2.877-2.375-3.958 2.449z" fill="#0b1d3d"/><path fill="#9aceef" d="M21.58 35.119l1.582-3.002L20 29.457l-3.164 2.66 1.581 3.002-1.716 15.115L20 54.699l3.299-4.465z"/><path d="M20 55.355a.657.657 0 01-.529-.266l-3.298-4.465a.659.659 0 01-.125-.465l1.694-14.916-1.486-2.822a.66.66 0 01.158-.811l3.163-2.658a.66.66 0 01.847 0l3.163 2.658a.659.659 0 01.158.811l-1.486 2.822 1.695 14.916a.659.659 0 01-.125.465l-3.299 4.465a.66.66 0 01-.53.266zm-2.617-5.304L20 53.592l2.616-3.541-1.688-14.857a.668.668 0 01.072-.381l1.334-2.533L20 30.314l-2.334 1.965L19 34.813a.644.644 0 01.071.381l-1.688 14.857z" fill="#0b1d3d"/><path fill="none" d="M7.579 55.328V43.549"/><path d="M7.579 55.986a.657.657 0 01-.657-.656V43.549a.658.658 0 111.314 0V55.33a.659.659 0 01-.657.656z" fill="#0b1d3d"/><path fill="none" d="M32.42 55.328V43.549"/><path d="M32.42 55.986a.656.656 0 01-.656-.656V43.549a.658.658 0 011.314 0V55.33a.658.658 0 01-.658.656z" fill="#0b1d3d"/><path d="M28.201 11.128v5.781c0 4.38-3.588 7.966-7.973 7.966-4.381 0-7.967-3.586-7.967-7.966v-5.781c3.697.535 6.505-2.5 7.967-4.533 2.469 2.181 5.151 5.189 7.973 4.533z" fill="#fff"/><path d="M20.23 25.533c-4.756 0-8.625-3.869-8.625-8.624v-5.781a.658.658 0 01.752-.651c.255.037.512.056.765.056 2.866 0 5.157-2.351 6.574-4.321a.66.66 0 01.969-.109c.357.314.716.646 1.082.981 1.859 1.71 3.781 3.478 5.652 3.478.223 0 .439-.023.652-.074.195-.046.4 0 .561.125a.66.66 0 01.248.516v5.781c-.001 4.755-3.872 8.623-8.63 8.623zm-7.311-13.689v5.065c0 4.029 3.279 7.309 7.311 7.309s7.313-3.279 7.313-7.309v-5.035a3.507 3.507 0 01-.145.003c-2.387 0-4.5-1.944-6.543-3.825-.179-.164-.355-.327-.531-.487-1.654 2.119-4.157 4.374-7.405 4.279z" fill="#0b1d3d"/><path d="M29.293 10.217v1.123a1.923 1.923 0 00-.885-.212h-.207c-4.602.511-5.504-2.353-7.973-4.533-1.461 2.033-3.142 5.812-7.967 4.533h-.207c-.506 0-.967.191-1.315.511v-1.422A9.276 9.276 0 0120.015.94c2.561 0 4.881 1.037 6.561 2.716s2.717 3.996 2.717 6.561z" fill="#fff"/><path d="M10.739 12.296a.657.657 0 01-.657-.659v-1.422c0-5.478 4.456-9.934 9.934-9.934A9.864 9.864 0 0127.04 3.19a9.863 9.863 0 012.91 7.025v1.124a.657.657 0 01-.957.585 1.282 1.282 0 00-.586-.141h-.174c-.367.04-.727.061-1.064.061-3.027 0-4.449-1.601-5.824-3.147a26.03 26.03 0 00-1.01-1.096l-.128.194c-1.186 1.792-2.808 4.248-6.102 4.248a7.819 7.819 0 01-1.929-.259h-.123c-.323 0-.633.12-.871.338a.643.643 0 01-.443.174zm1.316-1.826h.207a.63.63 0 01.168.022 6.588 6.588 0 001.676.236c2.588 0 3.871-1.943 5.005-3.658.202-.306.396-.597.584-.859a.66.66 0 01.969-.109c.634.561 1.16 1.15 1.666 1.722 1.344 1.512 2.404 2.705 4.842 2.705.301 0 .623-.019.957-.056a.868.868 0 01.072-.004h.207c.076 0 .152.003.229.01v-.263a8.564 8.564 0 00-2.523-6.096 8.563 8.563 0 00-6.096-2.524c-4.752 0-8.619 3.867-8.619 8.62v.337a2.65 2.65 0 01.656-.083z" fill="#0b1d3d"/><path d="M28.195 15.074v0z" fill="#fff"/><path d="M28.195 15.846h-.008a.657.657 0 01-.65-.657v-.114c0-.361.291-.655.652-.658h.006c.357 0 .65.288.658.648v.138a.659.659 0 01-.658.643z" fill="#0b1d3d"/><path d="M12.262 11.129h-.209a1.977 1.977 0 00-1.977 1.977v1.396c0 1.092.885 1.978 1.977 1.978h.209v-5.351z" fill="#f48690"/><path d="M12.262 17.135h-.209a2.638 2.638 0 01-2.635-2.634v-1.396a2.638 2.638 0 012.635-2.634h.209c.363 0 .658.294.658.657v5.351a.657.657 0 01-.658.656zm-.656-5.271a1.322 1.322 0 00-.872 1.241v1.396c0 .57.364 1.058.872 1.241v-3.878z" fill="#0b1d3d"/><g><path d="M28.199 11.129h.209c1.092 0 1.977.885 1.977 1.977v1.396a1.978 1.978 0 01-1.977 1.978h-.209v-5.351z" fill="#f48690"/><path d="M28.408 17.135h-.209a.657.657 0 01-.658-.656v-5.351c0-.363.295-.657.658-.657h.209a2.638 2.638 0 012.635 2.634v1.396a2.638 2.638 0 01-2.635 2.634zm.449-5.271v3.878c.508-.184.871-.671.871-1.241v-1.396a1.322 1.322 0 00-.871-1.241z" fill="#0b1d3d"/></g><g><path d="M21.395 22.083a.659.659 0 110-1.315c4.791 0 6.377-4.458 6.393-4.504a.66.66 0 01.836-.408.656.656 0 01.408.836c-.02.053-1.919 5.391-7.637 5.391z" fill="#0b1d3d"/></g><g><circle cx="20.613" cy="21.425" r="1.307" fill="#f48690"/><path d="M20.613 23.389c-1.083 0-1.964-.88-1.964-1.963s.881-1.964 1.964-1.964 1.965.881 1.965 1.964-.883 1.963-1.965 1.963zm0-2.612a.648.648 0 100 1.295.648.648 0 000-1.295z" fill="#0b1d3d"/></g><g><path d="M17.465 12.749a.66.66 0 01-.104-1.307c2.161-.352 2.21-4.8 2.21-4.845a.658.658 0 01.657-.659h.002c.361 0 .655.292.656.654.001.229-.015 5.611-3.313 6.147a.657.657 0 01-.108.01z" fill="#0b1d3d"/></g><g><path d="M17.996 34.141a.657.657 0 01-.465-1.121l3.104-3.104a.655.655 0 01.93 0 .655.655 0 010 .93l-3.104 3.104a.657.657 0 01-.465.191z" fill="#0b1d3d"/></g><g><path d="M18.115 39.172a.657.657 0 01-.465-1.123l3.436-3.436a.658.658 0 11.932.93l-3.437 3.436a.663.663 0 01-.466.193z" fill="#0b1d3d"/></g><g><path d="M17.792 42.516a.658.658 0 01-.465-1.123l3.963-3.963a.66.66 0 01.93 0 .655.655 0 010 .93l-3.962 3.965a.673.673 0 01-.466.191z" fill="#0b1d3d"/></g><g><path d="M17.508 45.816a.661.661 0 01-.465-.191.662.662 0 010-.932l4.683-4.68a.655.655 0 01.93 0 .66.66 0 010 .93l-4.683 4.682a.658.658 0 01-.465.191z" fill="#0b1d3d"/></g><g><path d="M16.974 49.369a.655.655 0 01-.465-1.121l5.26-5.258a.655.655 0 01.93 0 .66.66 0 010 .93l-5.26 5.256a.648.648 0 01-.465.193z" fill="#0b1d3d"/></g><g><path d="M17.609 51.754a.657.657 0 01-.465-1.121l4.982-4.986a.658.658 0 11.932.932l-4.984 4.982a.66.66 0 01-.465.193z" fill="#0b1d3d"/></g><g><path d="M18.813 53.568a.657.657 0 01-.465-1.121l4.164-4.162a.655.655 0 01.93 0 .655.655 0 010 .93l-4.163 4.162a.662.662 0 01-.466.191z" fill="#0b1d3d"/></g><g><path d="M18.451 36.199a.657.657 0 01-.465-1.123l3.867-3.867a.66.66 0 01.93 0 .655.655 0 010 .93l-3.867 3.867a.652.652 0 01-.465.193z" fill="#0b1d3d"/></g><g><path d="M17.076 14.577c-.896 0-.896 1.392 0 1.392.895 0 .897-1.392 0-1.392zM23.98 14.577c-.896 0-.896 1.392 0 1.392.895 0 .897-1.392 0-1.392z" fill="#0b1d3d"/></g></svg>