<?xml version="1.0" encoding="utf-8"?>
<!-- Generator: Adobe Illustrator 16.0.0, SVG Export Plug-In . SVG Version: 6.00 Build 0)  -->
<!DOCTYPE svg PUBLIC "-//W3C//DTD SVG 1.1//EN" "http://www.w3.org/Graphics/SVG/1.1/DTD/svg11.dtd">
<svg version="1.1" id="Layer_1" xmlns="http://www.w3.org/2000/svg" xmlns:xlink="http://www.w3.org/1999/xlink" x="0px" y="0px"
	 width="70.87px" height="70.87px" viewBox="0 0 70.87 70.87" enable-background="new 0 0 70.87 70.87" xml:space="preserve">
<g>
	<g>
		<g>
			<path id="SVGID_71_" fill="#CFC2E0" d="M14.896,43.621c-1.861-2.229-2.979-5.095-2.979-8.222c0-7.097,5.753-12.848,12.849-12.848
				c7.097,0,12.849,5.751,12.849,12.848c0,7.096-5.752,12.847-12.849,12.847c-2.788,0-6.64-0.521-8.745-2.033l-3.626,1.932
				L14.896,43.621z"/>
		</g>
	</g>
	<g>
		<g>
			<path id="SVGID_73_" fill="#0D1E3D" d="M10.139,49.958c-0.156,0-0.312-0.059-0.431-0.175c-0.197-0.19-0.243-0.495-0.107-0.735
				l2.916-5.271c-1.935-2.468-2.993-5.53-2.993-8.674c0-7.758,6.312-14.069,14.066-14.069c7.756,0,14.067,6.312,14.067,14.069
				c0,7.756-6.312,14.064-14.067,14.064c-2.818,0-5.523-0.827-7.853-2.396l-5.287,3.105C10.354,49.93,10.244,49.958,10.139,49.958z
				 M15.767,45.421c0.127,0,0.252,0.036,0.358,0.113c2.188,1.566,4.771,2.396,7.465,2.396c7.078,0,12.837-5.758,12.837-12.834
				c0-7.078-5.759-12.837-12.837-12.837c-7.076,0-12.837,5.759-12.837,12.837c0,2.998,1.058,5.916,2.978,8.213
				c0.161,0.195,0.188,0.473,0.064,0.69l-2.028,3.668l3.688-2.166C15.552,45.449,15.658,45.421,15.767,45.421z"/>
		</g>
	</g>
	<g>
		<line fill="none" x1="17.549" y1="31.288" x2="30.306" y2="31.288"/>
		<path fill="#0D1E3D" d="M30.306,31.902H17.548c-0.341,0-0.615-0.275-0.615-0.614c0-0.341,0.274-0.616,0.615-0.616h12.758
			c0.341,0,0.614,0.275,0.614,0.616C30.921,31.627,30.646,31.902,30.306,31.902z"/>
	</g>
	<g>
		<line fill="none" x1="17.549" y1="35.495" x2="30.306" y2="35.495"/>
		<path fill="#0D1E3D" d="M30.306,36.109H17.548c-0.341,0-0.615-0.275-0.615-0.614c0-0.341,0.274-0.617,0.615-0.617h12.758
			c0.341,0,0.614,0.276,0.614,0.617C30.921,35.834,30.646,36.109,30.306,36.109z"/>
	</g>
	<g>
		<line fill="none" x1="17.549" y1="39.701" x2="27.059" y2="39.701"/>
		<path fill="#0D1E3D" d="M27.059,40.316h-9.511c-0.341,0-0.615-0.275-0.615-0.615c0-0.341,0.274-0.616,0.615-0.616h9.511
			c0.34,0,0.614,0.275,0.614,0.616C27.674,40.041,27.398,40.316,27.059,40.316z"/>
	</g>
	<g>
		<g>
			<path id="SVGID_75_" fill="#FFFFFF" d="M51.852,35.243c2.312-2.771,3.703-6.338,3.703-10.229c0-8.827-7.156-15.983-15.981-15.983
				c-8.826,0-15.98,7.156-15.98,15.983c0,8.826,7.154,15.98,15.98,15.98c3.47,0,6.678-1.106,9.297-2.986l6.687,3.928L51.852,35.243z
				"/>
		</g>
		<g>
			<path id="SVGID_76_" fill="#0D1E3D" d="M55.555,42.554c-0.106,0-0.216-0.025-0.312-0.085l-6.348-3.729
				c-2.761,1.879-5.976,2.87-9.324,2.87c-9.15,0-16.597-7.446-16.597-16.598c0-9.152,7.444-16.599,16.597-16.599
				c9.152,0,16.599,7.445,16.599,16.599c0,3.734-1.269,7.372-3.578,10.294l3.502,6.332c0.136,0.244,0.091,0.546-0.106,0.738
				C55.865,42.495,55.71,42.554,55.555,42.554z M39.57,9.647c-8.473,0-15.363,6.893-15.363,15.367
				c0,8.474,6.894,15.368,15.363,15.368c3.228,0,6.316-0.993,8.938-2.873c0.199-0.144,0.463-0.151,0.672-0.028l4.746,2.787
				l-2.613-4.729c-0.123-0.222-0.098-0.497,0.064-0.692c2.296-2.754,3.562-6.246,3.562-9.834C54.939,16.54,48.045,9.647,39.57,9.647
				z"/>
		</g>
	</g>
	<g>
		<line fill="none" x1="30.654" y1="20.484" x2="45.009" y2="20.484"/>
		<path fill="#0D1E3D" d="M45.009,21.1H30.655c-0.34,0-0.616-0.276-0.616-0.616c0-0.34,0.276-0.615,0.616-0.615h14.354
			c0.341,0,0.615,0.275,0.615,0.615C45.624,20.824,45.35,21.1,45.009,21.1z"/>
	</g>
	<g>
		<line fill="none" x1="30.654" y1="24.981" x2="49.285" y2="24.981"/>
		<path fill="#0D1E3D" d="M49.285,25.597H30.652c-0.34,0-0.615-0.276-0.615-0.616s0.275-0.615,0.615-0.615h18.633
			c0.34,0,0.615,0.275,0.615,0.615S49.625,25.597,49.285,25.597z"/>
	</g>
	<g>
		<line fill="none" x1="30.654" y1="29.479" x2="49.285" y2="29.479"/>
		<path fill="#0D1E3D" d="M49.285,30.094H30.652c-0.34,0-0.615-0.276-0.615-0.615c0-0.341,0.275-0.616,0.615-0.616h18.633
			c0.34,0,0.615,0.275,0.615,0.616C49.902,29.818,49.625,30.094,49.285,30.094z"/>
	</g>
	<g>
		<line fill="none" x1="47.018" y1="20.484" x2="49.285" y2="20.484"/>
		<path fill="#0D1E3D" d="M49.285,21.1h-2.271c-0.342,0-0.615-0.276-0.615-0.616c0-0.34,0.273-0.615,0.615-0.615h2.271
			c0.34,0,0.615,0.275,0.615,0.615C49.9,20.824,49.625,21.1,49.285,21.1z"/>
	</g>
	<g>
		<line fill="none" x1="28.959" y1="39.701" x2="30.654" y2="39.701"/>
		<path fill="#0D1E3D" d="M30.654,40.316H28.96c-0.341,0-0.615-0.275-0.615-0.615c0-0.341,0.274-0.616,0.615-0.616h1.694
			c0.34,0,0.615,0.275,0.615,0.616C31.27,40.041,30.992,40.316,30.654,40.316z"/>
	</g>
	<g>
		<circle fill="#98CCEE" cx="54.82" cy="50.208" r="3.588"/>
	</g>
	<g>
		<path fill="#0D1E3D" d="M54.277,54.412c-2.617,0-4.748-2.13-4.748-4.749c0-2.616,2.131-4.747,4.748-4.747s4.748,2.131,4.748,4.747
			C59.025,52.282,56.895,54.412,54.277,54.412z M54.277,46.146c-1.938,0-3.521,1.576-3.521,3.517c0,1.939,1.578,3.521,3.521,3.521
			c1.938,0,3.519-1.576,3.519-3.521C57.794,47.724,56.216,46.146,54.277,46.146z"/>
	</g>
	<g>
		<path fill="#98CCEE" d="M60.951,64.246h-13.35V59.85c0-3.229,2.617-5.846,5.85-5.846h1.654c3.229,0,5.848,2.615,5.848,5.846
			L60.951,64.246L60.951,64.246z"/>
		<path fill="#0D1E3D" d="M60.951,64.861h-13.35c-0.34,0-0.613-0.275-0.613-0.615V59.85c0-3.562,2.896-6.461,6.463-6.461h1.654
			c3.562,0,6.461,2.896,6.461,6.461v4.396C61.566,64.585,61.291,64.861,60.951,64.861z M48.219,63.628h12.115v-3.776
			c0-2.885-2.348-5.229-5.229-5.229h-1.654c-2.887,0-5.229,2.348-5.229,5.229L48.219,63.628L48.219,63.628z"/>
	</g>
</g>
</svg>
