<svg xmlns="http://www.w3.org/2000/svg" width="31" height="35"><g fill="#010101"><path d="M15.5 22.683c-6.287 0-11.401-5.088-11.401-11.341S9.213 0 15.5 0c6.288 0 11.402 5.088 11.402 11.341S21.787 22.683 15.5 22.683zm0-19.14c-4.323 0-7.84 3.498-7.84 7.798s3.517 7.798 7.84 7.798 7.84-3.498 7.84-7.798-3.518-7.798-7.84-7.798z"/><path d="M1.78 35C.797 35 0 34.207 0 33.229c0-6.336 3.722-12.18 9.483-14.89a1.786 1.786 0 012.371.846c.42.884.04 1.939-.849 2.358-4.522 2.125-7.445 6.712-7.445 11.686A1.774 1.774 0 011.78 35zM29.219 35c-.983 0-1.78-.793-1.78-1.771 0-4.974-2.923-9.562-7.445-11.687a1.767 1.767 0 01-.85-2.358 1.785 1.785 0 012.371-.845C27.276 21.048 31 26.892 31 33.229c0 .978-.797 1.771-1.781 1.771zM14.975 34.922c-.528 0-1.029-.194-1.368-.599l-2.852-3.384a1.752 1.752 0 01.228-2.483 1.788 1.788 0 012.508.23l1.441 1.722 3.926-4.981a1.788 1.788 0 012.5-.302c.774.604.91 1.718.302 2.488l-5.283 6.668c-.332.422-.838.641-1.375.641h-.027z"/></g></svg>