<svg xmlns="http://www.w3.org/2000/svg" viewBox="0 0 87 88" preserveAspectRatio="xMidYMid meet" style="width: 100%; height: 100%; transform: translate3d(0px, 0px, 0px);"><defs><clipPath id="__lottie_element_2"><rect width="87" height="88" x="0" y="0"></rect></clipPath><clipPath id="__lottie_element_4"><path d="M0,0 L1920,0 L1920,1900 L0,1900z"></path></clipPath><clipPath id="__lottie_element_77"><path d="M0,0 L1920,0 L1920,1900 L0,1900z"></path></clipPath><clipPath id="__lottie_element_90"><path d="M0,0 L1920,0 L1920,1900 L0,1900z"></path></clipPath><clipPath id="__lottie_element_103"><path d="M0,0 L1920,0 L1920,1900 L0,1900z"></path></clipPath><clipPath id="__lottie_element_116"><path d="M0,0 L1920,0 L1920,1900 L0,1900z"></path></clipPath><clipPath id="__lottie_element_129"><path d="M0,0 L1920,0 L1920,1900 L0,1900z"></path></clipPath><clipPath id="__lottie_element_142"><path d="M0,0 L1920,0 L1920,1900 L0,1900z"></path></clipPath><clipPath id="__lottie_element_155"><path d="M0,0 L1920,0 L1920,1900 L0,1900z"></path></clipPath><clipPath id="__lottie_element_168"><path d="M0,0 L1920,0 L1920,1900 L0,1900z"></path></clipPath></defs><g clip-path="url(#__lottie_element_2)"><g clip-path="url(#__lottie_element_4)" transform="matrix(0.05000000074505806,0,0,0.05000000074505806,-4.5,-3.5)" opacity="1" style="display: block;"><g clip-path="url(#__lottie_element_168)" transform="matrix(1,0,0,1,0,0)" opacity="1" style="display: none;"><g transform="matrix(1,0,0,1,1308.9510498046875,549.1770629882812)" opacity="0.0227983099592646" style="display: none;"><g opacity="1" transform="matrix(1,0,0,1,0,0)"><path fill="rgb(0,90,168)" fill-opacity="1" d=" M60.26499938964844,84.83300018310547 C60.26499938964844,84.83300018310547 -9.383999824523926,87.58599853515625 -56.459999084472656,59.50600051879883 C-103.53600311279297,31.426000595092773 -104.08699798583984,-7.941999912261963 -83.98999786376953,-27.76300048828125 C-63.893001556396484,-47.58399963378906 -25.35099983215332,-34.369998931884766 -14.890000343322754,-25.010000228881836 C-14.890000343322754,-25.010000228881836 -7.732999801635742,-77.04100036621094 38.516998291015625,-84.1989974975586 C84.76699829101562,-91.35700225830078 108.16699981689453,-42.90399932861328 90.822998046875,-1.3339999914169312 C73.47899627685547,40.236000061035156 57.23699951171875,50.69599914550781 60.26499938964844,84.83300018310547z"></path></g></g><g transform="matrix(1,0,0,1,1464.6739501953125,462.1590881347656)" opacity="0.0227983099592646" style="display: none;"><g opacity="1" transform="matrix(1,0,0,1,0,0)"><path fill="rgb(21,171,76)" fill-opacity="1" d=" M-31.038999557495117,57.87900161743164 C-31.038999557495117,57.87900161743164 -59.11899948120117,20.437999725341797 -54.9900016784668,-20.58099937438965 C-50.861000061035156,-61.599998474121094 -18.375,-63.250999450683594 -9.015000343322754,-51.68899917602539 C0.3449999988079071,-40.12699890136719 -1.5820000171661377,-15.074999809265137 -1.5820000171661377,-15.074999809265137 C-1.5820000171661377,-15.074999809265137 33.930999755859375,-37.374000549316406 51.54999923706055,-13.14799976348877 C69.16899871826172,11.07800006866455 23.7450008392334,56.22700119018555 -31.038999557495117,57.87900161743164z"></path></g></g><g transform="matrix(1,0,0,1,1459.322021484375,607.7711181640625)" opacity="0.0227983099592646" style="display: none;"><g opacity="1" transform="matrix(1,0,0,1,0,0)"><path fill="rgb(230,37,39)" fill-opacity="1" d=" M-63.678001403808594,26.312999725341797 C-63.678001403808594,26.312999725341797 -58.448001861572266,-23.31399917602539 -20.73200035095215,-57.72600173950195 C16.983999252319336,-92.13800048828125 45.06399917602539,-76.99700164794922 51.395999908447266,-54.42300033569336 C57.72800064086914,-31.849000930786133 37.63100051879883,-12.57800006866455 32.125,-9.824999809265137 C32.125,-9.824999809265137 75.0719985961914,13.024999618530273 60.75600051879883,52.94300079345703 C46.439998626708984,92.86100006103516 1.5670000314712524,76.61799621582031 -9.444999694824219,61.75199890136719 C-20.457000732421875,46.88600158691406 -45.507999420166016,26.937999725341797 -63.678001403808594,26.312999725341797z"></path></g></g></g><g clip-path="url(#__lottie_element_155)" style="display: none;" transform="matrix(1,0,0,1,0,0)" opacity="1"><g style="display: none;" transform="matrix(1,0,0,1,1308.9510498046875,549.0603637695312)" opacity="0.001308026653414629"><g opacity="1" transform="matrix(1,0,0,1,0,0)"><path fill="rgb(0,90,168)" fill-opacity="1" d=" M60.26499938964844,84.83300018310547 C60.26499938964844,84.83300018310547 -9.383999824523926,87.58599853515625 -56.459999084472656,59.50600051879883 C-103.53600311279297,31.426000595092773 -104.08699798583984,-7.941999912261963 -83.98999786376953,-27.76300048828125 C-63.893001556396484,-47.58399963378906 -25.35099983215332,-34.369998931884766 -14.890000343322754,-25.010000228881836 C-14.890000343322754,-25.010000228881836 -7.732999801635742,-77.04100036621094 38.516998291015625,-84.1989974975586 C84.76699829101562,-91.35700225830078 108.16699981689453,-42.90399932861328 90.822998046875,-1.3339999914169312 C73.47899627685547,40.236000061035156 57.23699951171875,50.69599914550781 60.26499938964844,84.83300018310547z"></path></g></g><g style="display: none;" transform="matrix(1,0,0,1,1464.6739501953125,462.0423889160156)" opacity="0.001308026653414629"><g opacity="1" transform="matrix(1,0,0,1,0,0)"><path fill="rgb(21,171,76)" fill-opacity="1" d=" M-31.038999557495117,57.87900161743164 C-31.038999557495117,57.87900161743164 -59.11899948120117,20.437999725341797 -54.9900016784668,-20.58099937438965 C-50.861000061035156,-61.599998474121094 -18.375,-63.250999450683594 -9.015000343322754,-51.68899917602539 C0.3449999988079071,-40.12699890136719 -1.5820000171661377,-15.074999809265137 -1.5820000171661377,-15.074999809265137 C-1.5820000171661377,-15.074999809265137 33.930999755859375,-37.374000549316406 51.54999923706055,-13.14799976348877 C69.16899871826172,11.07800006866455 23.7450008392334,56.22700119018555 -31.038999557495117,57.87900161743164z"></path></g></g><g style="display: none;" transform="matrix(1,0,0,1,1459.322021484375,607.6543579101562)" opacity="0.001308026653414629"><g opacity="1" transform="matrix(1,0,0,1,0,0)"><path fill="rgb(230,37,39)" fill-opacity="1" d=" M-63.678001403808594,26.312999725341797 C-63.678001403808594,26.312999725341797 -58.448001861572266,-23.31399917602539 -20.73200035095215,-57.72600173950195 C16.983999252319336,-92.13800048828125 45.06399917602539,-76.99700164794922 51.395999908447266,-54.42300033569336 C57.72800064086914,-31.849000930786133 37.63100051879883,-12.57800006866455 32.125,-9.824999809265137 C32.125,-9.824999809265137 75.0719985961914,13.024999618530273 60.75600051879883,52.94300079345703 C46.439998626708984,92.86100006103516 1.5670000314712524,76.61799621582031 -9.444999694824219,61.75199890136719 C-20.457000732421875,46.88600158691406 -45.507999420166016,26.937999725341797 -63.678001403808594,26.312999725341797z"></path></g></g></g><g clip-path="url(#__lottie_element_142)" style="display: block;" transform="matrix(1,0,0,1,0,0)" opacity="1"><g style="display: block;" transform="matrix(0.9961836338043213,-0.08728213608264923,0.08728213608264923,0.9961836338043213,1326.801513671875,597.854736328125)" opacity="0.5050867319979436"><g opacity="1" transform="matrix(1,0,0,1,0,0)"><path fill="rgb(0,90,168)" fill-opacity="1" d=" M60.26499938964844,84.83300018310547 C60.26499938964844,84.83300018310547 -9.383999824523926,87.58599853515625 -56.459999084472656,59.50600051879883 C-103.53600311279297,31.426000595092773 -104.08699798583984,-7.941999912261963 -83.98999786376953,-27.76300048828125 C-63.893001556396484,-47.58399963378906 -25.35099983215332,-34.369998931884766 -14.890000343322754,-25.010000228881836 C-14.890000343322754,-25.010000228881836 -7.732999801635742,-77.04100036621094 38.516998291015625,-84.1989974975586 C84.76699829101562,-91.35700225830078 108.16699981689453,-42.90399932861328 90.822998046875,-1.3339999914169312 C73.47899627685547,40.236000061035156 57.23699951171875,50.69599914550781 60.26499938964844,84.83300018310547z"></path></g></g><g style="display: block;" transform="matrix(0.9397090673446655,-0.34197500348091125,0.34197500348091125,0.9397090673446655,1464.6741943359375,462.0499267578125)" opacity="0.005086767741016303"><g opacity="1" transform="matrix(1,0,0,1,0,0)"><path fill="rgb(21,171,76)" fill-opacity="1" d=" M-31.038999557495117,57.87900161743164 C-31.038999557495117,57.87900161743164 -59.11899948120117,20.437999725341797 -54.9900016784668,-20.58099937438965 C-50.861000061035156,-61.599998474121094 -18.375,-63.250999450683594 -9.015000343322754,-51.68899917602539 C0.3449999988079071,-40.12699890136719 -1.5820000171661377,-15.074999809265137 -1.5820000171661377,-15.074999809265137 C-1.5820000171661377,-15.074999809265137 33.930999755859375,-37.374000549316406 51.54999923706055,-13.14799976348877 C69.16899871826172,11.07800006866455 23.7450008392334,56.22700119018555 -31.038999557495117,57.87900161743164z"></path></g></g><g style="display: block;" transform="matrix(0.9956129193305969,-0.09356764703989029,0.09356764703989029,0.9956129193305969,1455.68359375,768.023193359375)" opacity="1"><g opacity="1" transform="matrix(1,0,0,1,0,0)"><path fill="rgb(230,37,39)" fill-opacity="1" d=" M-63.678001403808594,26.312999725341797 C-63.678001403808594,26.312999725341797 -58.448001861572266,-23.31399917602539 -20.73200035095215,-57.72600173950195 C16.983999252319336,-92.13800048828125 45.06399917602539,-76.99700164794922 51.395999908447266,-54.42300033569336 C57.72800064086914,-31.849000930786133 37.63100051879883,-12.57800006866455 32.125,-9.824999809265137 C32.125,-9.824999809265137 75.0719985961914,13.024999618530273 60.75600051879883,52.94300079345703 C46.439998626708984,92.86100006103516 1.5670000314712524,76.61799621582031 -9.444999694824219,61.75199890136719 C-20.457000732421875,46.88600158691406 -45.507999420166016,26.937999725341797 -63.678001403808594,26.312999725341797z"></path></g></g></g><g clip-path="url(#__lottie_element_129)" style="display: none;"><g style="display: none;"><g><path></path></g></g><g style="display: none;"><g><path></path></g></g><g style="display: none;"><g><path></path></g></g></g><g clip-path="url(#__lottie_element_116)" style="display: none;"><g style="display: none;"><g><path></path></g></g><g style="display: none;"><g><path></path></g></g><g style="display: none;"><g><path></path></g></g></g><g clip-path="url(#__lottie_element_103)" style="display: none;"><g style="display: none;"><g><path></path></g></g><g style="display: none;"><g><path></path></g></g><g style="display: none;"><g><path></path></g></g></g><g clip-path="url(#__lottie_element_90)" style="display: none;"><g style="display: none;"><g><path></path></g></g><g style="display: none;"><g><path></path></g></g><g style="display: none;"><g><path></path></g></g></g><g clip-path="url(#__lottie_element_77)" style="display: none;"><g style="display: none;"><g><path></path></g></g><g style="display: none;"><g><path></path></g></g><g style="display: none;"><g><path></path></g></g></g><g transform="matrix(1,0,0,1,960,1170)" opacity="1" style="display: none;"><g opacity="1" transform="matrix(1,0,0,1,0,0)"><path fill="rgb(216,38,131)" fill-opacity="1" d=" M153.63099670410156,-202.77699279785156 C153.63099670410156,-202.77699279785156 152.53399658203125,-203.427001953125 152.53399658203125,-203.427001953125 C152.53399658203125,-203.427001953125 153.19200134277344,-199.19200134277344 153.19200134277344,-199.19200134277344 C153.19200134277344,-199.19200134277344 154.04400634765625,-199.14199829101562 154.04400634765625,-199.14199829101562 C154.04400634765625,-199.14199829101562 153.63099670410156,-202.77699279785156 153.63099670410156,-202.77699279785156z M152.4929962158203,-206.0050048828125 C152.9709930419922,-206.28399658203125 153.32400512695312,-206.41799926757812 153.5189971923828,-206.41400146484375 C152.80599975585938,-207.44700622558594 152.04800415039062,-208.44400024414062 151.21600341796875,-209.39100646972656 C150.41299438476562,-210.32200622558594 149.55599975585938,-211.11500549316406 148.6479949951172,-211.7760009765625 C148.97799682617188,-210.7570037841797 149.44400024414062,-209.6199951171875 150.05099487304688,-208.38299560546875 C150.65899658203125,-207.14599609375 151.04400634765625,-206.02499389648438 151.1909942626953,-205.01100158691406 C151.57699584960938,-205.4080047607422 152.01499938964844,-205.72500610351562 152.4929962158203,-206.0050048828125 M142.81500244140625,-178.73199462890625 C143.2469940185547,-177.80499267578125 143.3260040283203,-176.63499450683594 143.0850067138672,-175.23800659179688 C142.33900451660156,-175.4669952392578 141.79600524902344,-176.093994140625 141.47000122070312,-177.13900756835938 C141.14199829101562,-178.14999389648438 141.08599853515625,-179.15899658203125 141.31700134277344,-180.16600036621094 C141.88800048828125,-180.1300048828125 142.3820037841797,-179.6510009765625 142.81500244140625,-178.73199462890625 M169.51800537109375,-151.1790008544922 C175.14199829101562,-145.76300048828125 177.9949951171875,-142.06100463867188 178.0989990234375,-140.06900024414062 C178.25,-139.0279998779297 178.2239990234375,-137.2779998779297 178.01400756835938,-134.7689971923828 C177.80999755859375,-132.2530059814453 177.86599731445312,-130.19500732421875 178.15899658203125,-128.58999633789062 C176.2729949951172,-128.468994140625 173.13400268554688,-126.65599822998047 168.71800231933594,-123.16999816894531 C164.31199645996094,-119.66100311279297 161.1649932861328,-117.75599670410156 159.2729949951172,-117.427001953125 C158.52200317382812,-117.87000274658203 157.5070037841797,-118.427001953125 156.21299743652344,-119.07599639892578 C154.92300415039062,-119.74299621582031 153.89999389648438,-120.10600280761719 153.15899658203125,-120.14600372314453 C152.38800048828125,-120.18099975585938 152.05999755859375,-120.09200286865234 152.13800048828125,-119.89900207519531 C152.2270050048828,-119.6989974975586 151.80599975585938,-119.61100006103516 150.86300659179688,-119.6500015258789 C148.79400634765625,-119.74600219726562 146.5500030517578,-120.71399688720703 144.1929931640625,-122.53199768066406 C141.79600524902344,-124.36699676513672 140.47300720214844,-125.97100067138672 140.13600158691406,-127.41100311279297 C140.03199768066406,-129.0229949951172 140.17999267578125,-131.59500122070312 140.61599731445312,-135.1020050048828 C141.0540008544922,-138.58399963378906 140.8509979248047,-141.3699951171875 139.99200439453125,-143.41600036621094 C139.68099975585938,-144.82699584960938 139.40199279785156,-146.302001953125 139.2050018310547,-147.83200073242188 C138.97999572753906,-149.34100341796875 138.6999969482422,-150.81500244140625 138.39700317382812,-152.23599243164062 C140.5290069580078,-153.5399932861328 143.29600524902344,-155.1580047607422 146.6820068359375,-157.12100219726562 C150.06700134277344,-159.0590057373047 152.4219970703125,-160.00399780273438 153.75,-159.93899536132812 C154.31900024414062,-159.91099548339844 154.95599365234375,-159.5229949951172 155.68899536132812,-158.7949981689453 C156.39999389648438,-158.05499267578125 156.95199584960938,-157.7689971923828 157.35299682617188,-157.94400024414062 C159.8459930419922,-158.82899475097656 163.88999938964844,-156.58700561523438 169.51800537109375,-151.1790008544922 M139.45599365234375,-199.55799865722656 C139.53700256347656,-199.13699340820312 139.19700622558594,-198.9600067138672 138.4600067138672,-198.99200439453125 C138.33299255371094,-200.61700439453125 138.2429962158203,-201.6020050048828 138.156005859375,-202.02999877929688 C138.072998046875,-202.4250030517578 138.32699584960938,-202.61700439453125 138.89999389648438,-202.593994140625 C139.1929931640625,-200.96099853515625 139.38499450683594,-199.9510040283203 139.45599365234375,-199.55799865722656 M141.572998046875,-186.18899536132812 C140.85499572753906,-186.80299377441406 140.06900024414062,-187.51400756835938 139.25900268554688,-188.2449951171875 C138.43299865722656,-188.98199462890625 137.94900512695312,-189.677001953125 137.79600524902344,-190.28799438476562 C137.64500427246094,-191.30499267578125 137.85000610351562,-191.81100463867188 138.4149932861328,-191.75799560546875 C138.9949951171875,-191.7239990234375 139.3679962158203,-191.81199645996094 139.56300354003906,-192.0019989013672 C139.04299926757812,-193.02200317382812 138.6490020751953,-194.00399780273438 138.4199981689453,-194.9290008544922 C138.16099548339844,-195.83599853515625 137.88600158691406,-197.00900268554688 137.57899475097656,-198.44200134277344 C137.91799926757812,-197.8209991455078 138.51199340820312,-197.18099975585938 139.33200073242188,-196.54299926757812 C140.1540069580078,-195.88800048828125 140.5570068359375,-195.1580047607422 140.51499938964844,-194.3780059814453 C140.51499938964844,-194.3780059814453 141.572998046875,-186.18899536132812 141.572998046875,-186.18899536132812z M139.06900024414062,-245.40499877929688 C138.7899932861328,-243.42599487304688 138.68600463867188,-242.2220001220703 138.76300048828125,-241.81300354003906 C138.83200073242188,-241.40699768066406 139.14500427246094,-241.20799255371094 139.71400451660156,-241.16799926757812 C139.71400451660156,-241.16799926757812 139.91799926757812,-245.37100219726562 139.91799926757812,-245.37100219726562 C139.91799926757812,-245.37100219726562 139.06900024414062,-245.40499877929688 139.06900024414062,-245.40499877929688z M139.55999755859375,-237.4029998779297 C139.5760040283203,-237.906005859375 139.2169952392578,-238.177001953125 138.46099853515625,-238.2100067138672 C138.42999267578125,-237.4149932861328 138.42599487304688,-236.3470001220703 138.46800231933594,-235.0469970703125 C138.49099731445312,-233.73599243164062 138.79800415039062,-233.07200622558594 139.36599731445312,-233.05299377441406 C139.4739990234375,-235.46600341796875 139.5330047607422,-236.88999938964844 139.55999755859375,-237.4029998779297 M138.3699951171875,-206.99200439453125 C138.4429931640625,-206.48699951171875 138.53199768066406,-205.31900024414062 138.66200256347656,-203.5260009765625 C138.08900451660156,-203.54100036621094 137.8070068359375,-203.8489990234375 137.83900451660156,-204.45399475097656 C137.86599731445312,-205.0500030517578 137.72300720214844,-206.1840057373047 137.42300415039062,-207.78700256347656 C137.97300720214844,-207.76400756835938 138.3070068359375,-207.4980010986328 138.3699951171875,-206.99200439453125 M137.89500427246094,-212.44900512695312 C138.06199645996094,-211.93600463867188 138.4949951171875,-210.95799255371094 139.19500732421875,-209.50900268554688 C138.6199951171875,-209.54800415039062 138.26300048828125,-209.86500549316406 138.09800720214844,-210.48199462890625 C137.93899536132812,-211.08799743652344 137.49099731445312,-211.91700744628906 136.78399658203125,-212.9429931640625 C137.37100219726562,-213.125 137.72999572753906,-212.95899963378906 137.89500427246094,-212.44900512695312 M136.88999938964844,-215.05799865722656 C136.88999938964844,-215.05799865722656 136.0290069580078,-215.11399841308594 136.0290069580078,-215.11399841308594 C136.0290069580078,-215.11399841308594 136.4409942626953,-217.80999755859375 136.4409942626953,-217.80999755859375 C136.4409942626953,-217.80999755859375 137.5570068359375,-217.75100708007812 137.5570068359375,-217.75100708007812 C137.5570068359375,-217.75100708007812 136.88999938964844,-215.05799865722656 136.88999938964844,-215.05799865722656z M174.96800231933594,-318.4880065917969 C178.947998046875,-316.8919982910156 181.47300720214844,-312.7330017089844 182.50799560546875,-306.052001953125 C182.56700134277344,-299.02301025390625 181.05599975585938,-292.3169860839844 177.94200134277344,-285.9209899902344 C174.8260040283203,-279.5249938964844 171.81700134277344,-273.18798828125 168.89599609375,-266.8949890136719 C169.26100158691406,-266.6679992675781 168.66299438476562,-262.77801513671875 167.11199951171875,-255.20799255371094 C165.55099487304688,-247.6490020751953 164.49200439453125,-241.9770050048828 163.95199584960938,-238.17999267578125 C164.30499267578125,-237.35499572753906 164.63600158691406,-236.33999633789062 164.95899963378906,-235.11300659179688 C165.2779998779297,-233.9010009765625 165.0030059814453,-233.7100067138672 164.08399963378906,-234.55499267578125 C162.86700439453125,-232.61199951171875 162.15499877929688,-230.3159942626953 161.9409942626953,-227.72000122070312 C161.75999450683594,-225.39599609375 161.4600067138672,-223.1490020751953 161.0590057373047,-221.00100708007812 C160.96499633789062,-220.49600219726562 160.70399475097656,-220.0590057373047 160.375,-219.66400146484375 C158.2899932861328,-217.16099548339844 158.02000427246094,-213.4530029296875 159.5449981689453,-208.53900146484375 C161.2050018310547,-203.21600341796875 160.6820068359375,-199.62600708007812 157.9510040283203,-197.7570037841797 C158.3159942626953,-197.52099609375 158.7790069580078,-197.23599243164062 159.32000732421875,-196.9219970703125 C159.88299560546875,-196.59300231933594 160.13299560546875,-195.9239959716797 160.0919952392578,-194.93299865722656 C160.4429931640625,-194.31399536132812 160.5279998779297,-191.8300018310547 160.33999633789062,-187.52200317382812 C160.156005859375,-183.21499633789062 159.7949981689453,-179.6649932861328 159.31500244140625,-176.8699951171875 C158.58099365234375,-177.5070037841797 158.0260009765625,-177.85000610351562 157.6490020751953,-177.85299682617188 C157.6490020751953,-177.85299682617188 158.81100463867188,-178.72000122070312 158.81100463867188,-178.72000122070312 C158.07699584960938,-179.33200073242188 156.93800354003906,-180.14700317382812 155.38400268554688,-181.13299560546875 C153.80499267578125,-182.1060028076172 152.87100219726562,-183.01600646972656 152.531005859375,-183.84300231933594 C152.33700561523438,-183.84300231933594 152,-183.7530059814453 151.51499938964844,-183.58799743652344 C151.03900146484375,-183.4080047607422 150.60000610351562,-183.11900329589844 150.20899963378906,-182.7550048828125 C151.47900390625,-181.45700073242188 152.25900268554688,-179.718994140625 152.5240020751953,-177.50599670410156 C152.343994140625,-177.51699829101562 151.39300537109375,-177.406005859375 149.6999969482422,-177.18499755859375 C147.98399353027344,-176.96099853515625 146.91700744628906,-176.66400146484375 146.5229949951172,-176.29100036621094 C145.88299560546875,-178.71400451660156 145.20199584960938,-181.63499450683594 144.50599670410156,-184.9739990234375 C143.7949981689453,-188.31900024414062 143.37600708007812,-190.4149932861328 143.21299743652344,-191.2310028076172 C143.21299743652344,-191.2310028076172 140.3939971923828,-209.72000122070312 140.3939971923828,-209.72000122070312 C140.36199951171875,-209.93299865722656 140.44700622558594,-210.12399291992188 140.60699462890625,-210.26800537109375 C141.7760009765625,-211.32000732421875 142.22999572753906,-213.5919952392578 141.92599487304688,-217.0850067138672 C141.625,-220.81399536132812 141.30999755859375,-223.49400329589844 141.00599670410156,-225.11700439453125 C140.82899475097656,-225.51699829101562 140.63900756835938,-226.4040069580078 140.40899658203125,-227.71299743652344 C140.18600463867188,-229.0279998779297 139.63400268554688,-230.41400146484375 138.74400329589844,-231.86399841308594 C137.91900634765625,-230.31399536132812 137.5919952392578,-228.21600341796875 137.77200317382812,-225.57899475097656 C137.9409942626953,-222.96099853515625 137.69200134277344,-220.7519989013672 137.06199645996094,-218.97799682617188 C136.95599365234375,-221.20599365234375 136.9199981689453,-223.3090057373047 136.90899658203125,-225.3249969482422 C136.88800048828125,-227.33099365234375 136.4550018310547,-229.0570068359375 135.57899475097656,-230.5050048828125 C136.07000732421875,-233.3090057373047 136.53799438476562,-236.3159942626953 136.96200561523438,-239.49400329589844 C137.3769989013672,-242.69900512695312 138.03900146484375,-245.87899780273438 138.9409942626953,-249.03900146484375 C139.08900451660156,-248.43499755859375 139.20899963378906,-247.9219970703125 139.28799438476562,-247.51800537109375 C139.36199951171875,-247.10899353027344 139.66099548339844,-246.39100646972656 140.19000244140625,-245.3679962158203 C141.1750030517578,-246.3249969482422 141.75100708007812,-247.60400390625 141.91200256347656,-249.2030029296875 C142.08299255371094,-250.7949981689453 141.08099365234375,-250.94400024414062 138.95399475097656,-249.63699340820312 C138.4040069580078,-254.31199645996094 138.7220001220703,-260.5780029296875 139.91200256347656,-268.4590148925781 C141.10000610351562,-276.3399963378906 141.5260009765625,-282.5989990234375 141.16000366210938,-287.2640075683594 C142.9409942626953,-289.1780090332031 144.177001953125,-292.3320007324219 144.843994140625,-296.72100830078125 C145.4980010986328,-301.11199951171875 146.59500122070312,-305.88299560546875 148.1510009765625,-311.052001953125 C148.56300354003906,-312.0270080566406 148.70399475097656,-313.1310119628906 148.57899475097656,-314.34600830078125 C148.4340057373047,-315.5580139160156 148.40699768066406,-316.7699890136719 148.4510040283203,-317.9599914550781 C149.05799865722656,-318.9389953613281 149.677001953125,-320.1189880371094 150.30099487304688,-321.50299072265625 C150.9409942626953,-322.87298583984375 151.65899658203125,-324.14801025390625 152.46499633789062,-325.30999755859375 C153.21400451660156,-325.27099609375 154.35299682617188,-325.41900634765625 155.87399291992188,-325.76300048828125 C157.41600036621094,-326.0610046386719 158.26600646972656,-326.5360107421875 158.50100708007812,-327.1260070800781 C165.47900390625,-322.97698974609375 170.9770050048828,-320.0780029296875 174.96800231933594,-318.4880065917969"></path></g></g><g transform="matrix(1,0,0,1,0,630)" opacity="1" style="display: none;"><g opacity="1" transform="matrix(1,0,0,1,930.7410278320312,268.7380065917969)"><path fill="rgb(216,38,131)" fill-opacity="1" d=" M-2.825000047683716,-26.687000274658203 C-4.820000171661377,-40.64899826049805 -32.555999755859375,-48.98699951171875 -34.62099838256836,-36.391998291015625 C-36.68600082397461,-23.797000885009766 -44.32600021362305,1.187000036239624 -46.183998107910156,20.594999313354492 C-48.04199981689453,40.00299835205078 -19.961999893188477,47.229000091552734 1.0980000495910645,39.59000015258789 C22.158000946044922,31.951000213623047 48.58700180053711,24.51799964904785 46.10900115966797,-4.59499979019165 C43.63100051879883,-33.70800018310547 19.26799964904785,-31.229999542236328 12.041000366210938,-29.371999740600586 C4.814000129699707,-27.513999938964844 4.609000205993652,-24.82900047302246 10.803000450134277,-17.190000534057617 C16.996999740600586,-9.550999641418457 16.170000076293945,5.521999835968018 4.607999801635742,10.890000343322754 C-6.953999996185303,16.257999420166016 -23.05900001525879,19.356000900268555 -15.831999778747559,4.489999771118164 C-8.604999542236328,-10.37600040435791 -0.7599999904632568,-12.234000205993652 -2.825000047683716,-26.687000274658203z"></path></g><g opacity="1" transform="matrix(1,0,0,1,968.0020141601562,349.9200134277344)"><path fill="rgb(216,38,131)" fill-opacity="1" d=" M-21.29800033569336,7.817999839782715 C-21.29800033569336,7.817999839782715 -28.523000717163086,-20.944000244140625 -35.542999267578125,-24.041000366210938 C-42.5629997253418,-27.13800048828125 -46.27899932861328,-26.875999450683594 -52.266998291015625,-27.729999542236328 C-58.255001068115234,-28.583999633789062 -71.88200378417969,-26.725000381469727 -63.00400161743164,-15.576000213623047 C-54.125999450683594,-4.427000045776367 -48.75699996948242,10.531999588012695 -44.62799835205078,14.20199966430664 C-44.62799835205078,14.20199966430664 -70.8489990234375,20.350000381469727 -76.83699798583984,32.11899948120117 C-82.82499694824219,43.88800048828125 -68.99099731445312,56.481998443603516 -35.542999267578125,44.91999816894531 C-2.0950000286102295,33.358001708984375 43.742000579833984,13.932999610900879 61.9119987487793,9.914999961853027 C80.08200073242188,5.896999835968018 80.90699768066406,2.5940001010894775 74.71299743652344,-6.078000068664551 C68.51899719238281,-14.75 49.11000061035156,-15.96500015258789 39.819000244140625,-10.711999893188477 C30.527999877929688,-5.459000110626221 21.23699951171875,-2.234999895095825 21.23699951171875,-2.234999895095825 C21.23699951171875,-2.234999895095825 20.410999298095703,-29.822999954223633 16.281999588012695,-41.79800033569336 C12.152999877929688,-53.77299880981445 -10.5600004196167,-50.263999938964844 -18.4060001373291,-41.59199905395508 C-26.25200080871582,-32.91999816894531 -17.579999923706055,-35.1349983215332 -11.798999786376953,-27.729999542236328 C-6.01800012588501,-20.325000762939453 -6.63700008392334,3.058000087738037 -6.63700008392334,3.058000087738037 C-6.63700008392334,3.058000087738037 -21.29800033569336,7.817999839782715 -21.29800033569336,7.817999839782715z"></path></g></g><g transform="matrix(1,0,0,1,0,630)" opacity="1" style="display: none;"><g opacity="1" transform="matrix(1,0,0,1,807.2689819335938,347.4849853515625)"><path fill="rgb(216,38,131)" fill-opacity="1" d=" M-14.79800033569336,1.38100004196167 C-14.79800033569336,1.38100004196167 -32.00299835205078,-19.267000198364258 -45.768001556396484,-21.055999755859375 C-59.53300094604492,-22.844999313354492 -65.86499786376953,-13.072999954223633 -55.81700134277344,-4.814000129699707 C-45.76900100708008,3.444999933242798 -33.930999755859375,18.86199951171875 -25.534000396728516,40.61000061035156 C-17.136999130249023,62.358001708984375 -13.972000122070312,69.65399932861328 -3.234999895095825,63.321998596191406 C7.501999855041504,56.9900016784668 -0.0689999982714653,38.68299865722656 -3.234999895095825,29.461000442504883 C-6.401000022888184,20.23900032043457 -8.602999687194824,12.255000114440918 -8.602999687194824,12.255000114440918 C-8.602999687194824,12.255000114440918 6.401000022888184,0.004000000189989805 9.015999794006348,-4.538000106811523 C9.015999794006348,-4.538000106811523 17.27400016784668,-4.538000106811523 25.67099952697754,27.94700050354004 C34.06800079345703,60.43199920654297 31.31399917602539,78.05000305175781 48.93299865722656,75.02200317382812 C66.552001953125,71.99400329589844 60.770999908447266,30.700000762939453 54.9900016784668,12.529999732971191 C49.20899963378906,-5.639999866485596 26.222000122070312,-48.861000061035156 12.456999778747559,-66.61799621582031 C-1.3079999685287476,-84.375 -17.687999725341797,-72.81199645996094 -14.9350004196167,-52.165000915527344 C-12.182000160217285,-31.51799964904785 -1.0329999923706055,-12.9350004196167 -1.0329999923706055,-12.9350004196167 C-1.0329999923706055,-12.9350004196167 -14.79800033569336,1.38100004196167 -14.79800033569336,1.38100004196167z"></path></g><g opacity="1" transform="matrix(1,0,0,1,682.030029296875,321.1300048828125)"><path fill="rgb(216,38,131)" fill-opacity="1" d=" M14.637999534606934,15.760000228881836 C2.989000082015991,18.43600082397461 -5.321000099182129,12.456999778747559 -11.928000450134277,5.298999786376953 C-18.53499984741211,-1.8589999675750732 -33.53799819946289,-3.234999895095825 -20.73699951171875,-11.218999862670898 C-7.935999870300293,-19.202999114990234 11.472999572753906,-17.992000579833984 20.006999969482422,-7.501999855041504 C30.819000244140625,5.789000034332275 24.823999404907227,13.420000076293945 14.637999534606934,15.760000228881836z"></path></g><g opacity="1" transform="matrix(1,0,0,1,720.5139770507812,399.489013671875)"><path fill="rgb(216,38,131)" fill-opacity="1" d=" M22.266000747680664,-26.259000778198242 C22.266000747680664,-26.259000778198242 27.611000061035156,-45.54199981689453 10.840999603271484,-50.48500061035156 C-2.2360000610351562,-54.3390007019043 -8.234000205993652,-47.5 -15.173999786376953,-42.22700119018555 C-26.208999633789062,-33.84199905395508 -28.113000869750977,-29.839000701904297 -36.23400115966797,-26.53499984741211 C-44.35499954223633,-23.231000900268555 -46.97100067138672,-29.562999725341797 -50.4119987487793,-22.26799964904785 C-53.85300064086914,-14.972999572753906 -55.22999954223633,-4.511000156402588 -42.29100036621094,2.509000062942505 C-29.351999282836914,9.529000282287598 -16.773000717163086,-3.134999990463257 -12.73900032043457,-6.988999843597412 C-8.704999923706055,-10.843000411987305 -7.466000080108643,-9.329000473022461 -8.979999542236328,4.0229997634887695 C-10.494000434875488,17.375 -13.65999984741211,54.952999114990234 11.529999732971191,51.374000549316406 C36.720001220703125,47.79499816894531 51.99800109863281,15.998000144958496 52.68600082397461,0.8569999933242798 C53.374000549316406,-14.284000396728516 50.34600067138672,-33.00400161743164 22.266000747680664,-26.259000778198242z M29.56100082397461,7.876999855041504 C24.881000518798828,19.027000427246094 18.687000274658203,16.27400016784668 19.926000595092773,8.70300006866455 C21.165000915527344,1.1319999694824219 19.926000595092773,-4.923999786376953 19.926000595092773,-4.923999786376953 C30.799999237060547,-5.888000011444092 34.24100112915039,-3.2730000019073486 29.56100082397461,7.876999855041504z"></path></g></g><g transform="matrix(1,0,0,1,0,630)" opacity="1" style="display: none;"><g opacity="1" transform="matrix(1,0,0,1,548.47998046875,453.3320007324219)"><path fill="rgb(216,38,131)" fill-opacity="1" d=" M58.02899932861328,-19.951000213623047 C58.02899932861328,-19.951000213623047 37.65700149536133,-44.45199966430664 25.957000732421875,-67.85199737548828 C14.256999969482422,-91.25199890136719 -3.2239999771118164,-89.46299743652344 -12.583999633789062,-87.53600311279297 C-21.944000244140625,-85.60900115966797 -17.402000427246094,-75.9739990234375 -9.281000137329102,-64.13600158691406 C-1.159999966621399,-52.29800033569336 19.76300048828125,-26.006999969482422 20.726999282836914,-16.371999740600586 C21.69099998474121,-6.736999988555908 13.569000244140625,23.820999145507812 8.75100040435791,36.89799880981445 C3.933000087738037,49.974998474121094 -3.7750000953674316,56.856998443603516 -8.729999542236328,45.983001708984375 C-13.6850004196167,35.10900115966797 -13.54699993133545,26.160999298095703 -6.664999961853027,13.635000228881836 C0.21699999272823334,1.1089999675750732 -3.9119999408721924,-6.185999870300293 -7.9039998054504395,-5.2220001220703125 C-11.895999908447266,-4.257999897003174 -15.475000381469727,-3.9830000400543213 -15.475000381469727,-3.9830000400543213 C-15.475000381469727,-3.9830000400543213 -11.345999717712402,-14.994999885559082 -25.24799919128418,-27.93400001525879 C-39.150001525878906,-40.87300109863281 -50.849998474121094,-49.68299865722656 -63.513999938964844,-40.185001373291016 C-76.1780014038086,-30.687000274658203 -95.7239990234375,-15.821000099182129 -103.56999969482422,-9.076000213623047 C-111.41600036621094,-2.3310000896453857 -106.87300109863281,4 -92.28199768066406,2.3480000495910645 C-77.69100189208984,0.6959999799728394 -73.42400360107422,-0.9559999704360962 -68.46900177001953,-6.323999881744385 C-63.513999938964844,-11.692000389099121 -54.84299850463867,-15.682999610900879 -49.19900131225586,-9.21399974822998 C-43.55500030517578,-2.744999885559082 -43.69300079345703,2.622999906539917 -54.15399932861328,19.141000747680664 C-64.61499786376953,35.659000396728516 -82.9229965209961,46.80799865722656 -67.91899871826172,48.459999084472656 C-52.915000915527344,50.11199951171875 -43.624000549316406,45.362998962402344 -43.624000549316406,45.362998962402344 C-43.624000549316406,45.362998962402344 -28.690000534057617,86.31400299072266 -13.27299976348877,88.10299682617188 C2.1440000534057617,89.89199829101562 6.136000156402588,87.69000244140625 18.66200065612793,61.5369987487793 C31.187999725341797,35.38399887084961 39.58399963378906,12.190999984741211 40.40999984741211,-0.4729999899864197 C40.40999984741211,-0.4729999899864197 60.231998443603516,37.31100082397461 68.35299682617188,26.711999893188477 C76.4739990234375,16.113000869750977 96.70899963378906,-8.25 103.59100341796875,-17.74799919128418 C110.4729995727539,-27.246000289916992 106.61900329589844,-36.05500030517578 102.62699890136719,-41.9739990234375 C98.63500213623047,-47.893001556396484 87.0719985961914,-50.09600067138672 78.26300048828125,-40.323001861572266 C69.4540023803711,-30.549999237060547 58.02899932861328,-19.951000213623047 58.02899932861328,-19.951000213623047z"></path></g><g opacity="1" transform="matrix(1,0,0,1,659.9530029296875,529.8569946289062)"><path fill="rgb(216,38,131)" fill-opacity="1" d=" M22.4689998626709,-44.994998931884766 C3.061000108718872,-52.428001403808594 -12.218000411987305,-43.75699996948242 -21.509000778198242,-36.117000579833984 C-30.799999237060547,-28.47800064086914 -35.54999923706055,-25.586999893188477 -35.54999923706055,-25.586999893188477 C-35.137001037597656,-5.353000164031982 -40.09199905395508,36.768001556396484 -26.46500015258789,45.645999908447266 C-12.838000297546387,54.52399826049805 11.319999694824219,34.90999984741211 24.94700050354004,12.817000389099121 C38.57400131225586,-9.274999618530273 41.87699890136719,-37.5620002746582 22.4689998626709,-44.994998931884766z M-11.598999977111816,18.804000854492188 C-18.826000213623047,22.107999801635742 -11.1850004196167,-9.482000350952148 -10.152999877929688,-18.773000717163086 C-10.152999877929688,-18.773000717163086 6.363999843597412,-23.52199935913086 7.791999816894531,-12.166000366210938 C9.220000267028809,-0.8100000023841858 -4.372000217437744,15.5 -11.598999977111816,18.804000854492188z"></path></g></g><g transform="matrix(1,0,0,1,0,630.0010375976562)" opacity="1" style="display: none;"><g opacity="1" transform="matrix(1,0,0,1,452.7569885253906,599.531005859375)"><path fill="rgb(216,38,131)" fill-opacity="1" d=" M-86.03099822998047,-57.625999450683594 C-93.17400360107422,-48.505001068115234 -78.5979995727539,-14.324000358581543 -71.99099731445312,-13.91100025177002 C-65.38400268554688,-13.498000144958496 -53.821998596191406,-17.21500015258789 -30.69700050354004,-3.174999952316284 C-7.572000026702881,10.864999771118164 -1.7910000085830688,17.472999572753906 4.815999984741211,31.100000381469727 C11.42300033569336,44.72700119018555 23.39900016784668,40.183998107910156 34.96099853515625,50.095001220703125 C46.52299880981445,60.00600051879883 61.801998138427734,74.04499816894531 78.31999969482422,61.24399948120117 C94.83799743652344,48.44300079345703 88.64399719238281,45.553001403808594 70.88700103759766,31.100000381469727 C53.130001068115234,16.64699935913086 8.532999992370605,-20.104999542236328 8.532999992370605,-20.104999542236328 C8.532999992370605,-20.104999542236328 12.25,-32.90700149536133 23.39900016784668,-46.12099838256836 C34.54800033569336,-59.334999084472656 18.44300079345703,-71.30999755859375 4.4029998779296875,-64.29000091552734 C-9.63700008392334,-57.27000045776367 -9.223999977111816,-32.90700149536133 -9.223999977111816,-32.90700149536133 C-9.223999977111816,-32.90700149536133 -72.81700134277344,-74.4990005493164 -86.03099822998047,-57.625999450683594z"></path></g><g opacity="1" transform="matrix(1,0,0,1,389.2669982910156,671.4959716796875)"><path fill="rgb(216,38,131)" fill-opacity="1" d=" M-6.0229997634887695,-21.04400062561035 C-6.0229997634887695,-21.04400062561035 -10.5649995803833,-49.94900131225586 -35.755001068115234,-52.84000015258789 C-60.94499969482422,-55.73099899291992 -45.66600036621094,-26.825000762939453 -35.755001068115234,-8.243000030517578 C-25.8439998626709,10.33899974822998 -12.217000007629395,60.71900177001953 8.843000411987305,52.047000885009766 C29.902999877929688,43.375 23.708999633789062,25.204999923706055 15.86299991607666,13.229999542236328 C8.017000198364258,1.2549999952316284 6.7779998779296875,-2.128999948501587 15.449999809265137,-6.8379998207092285 C24.121999740600586,-11.54699993133545 47.24700164794922,-1.6360000371932983 49.3120002746582,-21.8700008392334 C51.37699890136719,-42.104000091552734 35.27199935913086,-45.40700149536133 21.23200035095215,-39.2130012512207 C7.191999912261963,-33.01900100708008 -6.0229997634887695,-21.04400062561035 -6.0229997634887695,-21.04400062561035z"></path></g></g><g style="display: block;" transform="matrix(1,0,0,1,960,1170)" opacity="1"><g opacity="1" transform="matrix(1,0,0,1,0,0)"><path fill="rgb(216,38,131)" fill-opacity="1" d=" M153.63099670410156,-202.77699279785156 C153.63099670410156,-202.77699279785156 152.53399658203125,-203.427001953125 152.53399658203125,-203.427001953125 C152.53399658203125,-203.427001953125 153.19200134277344,-199.19200134277344 153.19200134277344,-199.19200134277344 C153.19200134277344,-199.19200134277344 154.04400634765625,-199.14199829101562 154.04400634765625,-199.14199829101562 C154.04400634765625,-199.14199829101562 153.63099670410156,-202.77699279785156 153.63099670410156,-202.77699279785156z M152.4929962158203,-206.0050048828125 C152.9709930419922,-206.28399658203125 153.32400512695312,-206.41799926757812 153.5189971923828,-206.41400146484375 C152.80599975585938,-207.44700622558594 152.04800415039062,-208.44400024414062 151.21600341796875,-209.39100646972656 C150.41299438476562,-210.32200622558594 149.55599975585938,-211.11500549316406 148.6479949951172,-211.7760009765625 C148.97799682617188,-210.7570037841797 149.44400024414062,-209.6199951171875 150.05099487304688,-208.38299560546875 C150.65899658203125,-207.14599609375 151.04400634765625,-206.02499389648438 151.1909942626953,-205.01100158691406 C151.57699584960938,-205.4080047607422 152.01499938964844,-205.72500610351562 152.4929962158203,-206.0050048828125 M142.81500244140625,-178.73199462890625 C143.2469940185547,-177.80499267578125 143.3260040283203,-176.63499450683594 143.0850067138672,-175.23800659179688 C142.33900451660156,-175.4669952392578 141.79600524902344,-176.093994140625 141.47000122070312,-177.13900756835938 C141.14199829101562,-178.14999389648438 141.08599853515625,-179.15899658203125 141.31700134277344,-180.16600036621094 C141.88800048828125,-180.1300048828125 142.3820037841797,-179.6510009765625 142.81500244140625,-178.73199462890625 M169.51800537109375,-151.1790008544922 C175.14199829101562,-145.76300048828125 177.9949951171875,-142.06100463867188 178.0989990234375,-140.06900024414062 C178.25,-139.0279998779297 178.2239990234375,-137.2779998779297 178.01400756835938,-134.7689971923828 C177.80999755859375,-132.2530059814453 177.86599731445312,-130.19500732421875 178.15899658203125,-128.58999633789062 C176.2729949951172,-128.468994140625 173.13400268554688,-126.65599822998047 168.71800231933594,-123.16999816894531 C164.31199645996094,-119.66100311279297 161.1649932861328,-117.75599670410156 159.2729949951172,-117.427001953125 C158.52200317382812,-117.87000274658203 157.5070037841797,-118.427001953125 156.21299743652344,-119.07599639892578 C154.92300415039062,-119.74299621582031 153.89999389648438,-120.10600280761719 153.15899658203125,-120.14600372314453 C152.38800048828125,-120.18099975585938 152.05999755859375,-120.09200286865234 152.13800048828125,-119.89900207519531 C152.2270050048828,-119.6989974975586 151.80599975585938,-119.61100006103516 150.86300659179688,-119.6500015258789 C148.79400634765625,-119.74600219726562 146.5500030517578,-120.71399688720703 144.1929931640625,-122.53199768066406 C141.79600524902344,-124.36699676513672 140.47300720214844,-125.97100067138672 140.13600158691406,-127.41100311279297 C140.03199768066406,-129.0229949951172 140.17999267578125,-131.59500122070312 140.61599731445312,-135.1020050048828 C141.0540008544922,-138.58399963378906 140.8509979248047,-141.3699951171875 139.99200439453125,-143.41600036621094 C139.68099975585938,-144.82699584960938 139.40199279785156,-146.302001953125 139.2050018310547,-147.83200073242188 C138.97999572753906,-149.34100341796875 138.6999969482422,-150.81500244140625 138.39700317382812,-152.23599243164062 C140.5290069580078,-153.5399932861328 143.29600524902344,-155.1580047607422 146.6820068359375,-157.12100219726562 C150.06700134277344,-159.0590057373047 152.4219970703125,-160.00399780273438 153.75,-159.93899536132812 C154.31900024414062,-159.91099548339844 154.95599365234375,-159.5229949951172 155.68899536132812,-158.7949981689453 C156.39999389648438,-158.05499267578125 156.95199584960938,-157.7689971923828 157.35299682617188,-157.94400024414062 C159.8459930419922,-158.82899475097656 163.88999938964844,-156.58700561523438 169.51800537109375,-151.1790008544922 M139.45599365234375,-199.55799865722656 C139.53700256347656,-199.13699340820312 139.19700622558594,-198.9600067138672 138.4600067138672,-198.99200439453125 C138.33299255371094,-200.61700439453125 138.2429962158203,-201.6020050048828 138.156005859375,-202.02999877929688 C138.072998046875,-202.4250030517578 138.32699584960938,-202.61700439453125 138.89999389648438,-202.593994140625 C139.1929931640625,-200.96099853515625 139.38499450683594,-199.9510040283203 139.45599365234375,-199.55799865722656 M141.572998046875,-186.18899536132812 C140.85499572753906,-186.80299377441406 140.06900024414062,-187.51400756835938 139.25900268554688,-188.2449951171875 C138.43299865722656,-188.98199462890625 137.94900512695312,-189.677001953125 137.79600524902344,-190.28799438476562 C137.64500427246094,-191.30499267578125 137.85000610351562,-191.81100463867188 138.4149932861328,-191.75799560546875 C138.9949951171875,-191.7239990234375 139.3679962158203,-191.81199645996094 139.56300354003906,-192.0019989013672 C139.04299926757812,-193.02200317382812 138.6490020751953,-194.00399780273438 138.4199981689453,-194.9290008544922 C138.16099548339844,-195.83599853515625 137.88600158691406,-197.00900268554688 137.57899475097656,-198.44200134277344 C137.91799926757812,-197.8209991455078 138.51199340820312,-197.18099975585938 139.33200073242188,-196.54299926757812 C140.1540069580078,-195.88800048828125 140.5570068359375,-195.1580047607422 140.51499938964844,-194.3780059814453 C140.51499938964844,-194.3780059814453 141.572998046875,-186.18899536132812 141.572998046875,-186.18899536132812z M139.06900024414062,-245.40499877929688 C138.7899932861328,-243.42599487304688 138.68600463867188,-242.2220001220703 138.76300048828125,-241.81300354003906 C138.83200073242188,-241.40699768066406 139.14500427246094,-241.20799255371094 139.71400451660156,-241.16799926757812 C139.71400451660156,-241.16799926757812 139.91799926757812,-245.37100219726562 139.91799926757812,-245.37100219726562 C139.91799926757812,-245.37100219726562 139.06900024414062,-245.40499877929688 139.06900024414062,-245.40499877929688z M139.55999755859375,-237.4029998779297 C139.5760040283203,-237.906005859375 139.2169952392578,-238.177001953125 138.46099853515625,-238.2100067138672 C138.42999267578125,-237.4149932861328 138.42599487304688,-236.3470001220703 138.46800231933594,-235.0469970703125 C138.49099731445312,-233.73599243164062 138.79800415039062,-233.07200622558594 139.36599731445312,-233.05299377441406 C139.4739990234375,-235.46600341796875 139.5330047607422,-236.88999938964844 139.55999755859375,-237.4029998779297 M138.3699951171875,-206.99200439453125 C138.4429931640625,-206.48699951171875 138.53199768066406,-205.31900024414062 138.66200256347656,-203.5260009765625 C138.08900451660156,-203.54100036621094 137.8070068359375,-203.8489990234375 137.83900451660156,-204.45399475097656 C137.86599731445312,-205.0500030517578 137.72300720214844,-206.1840057373047 137.42300415039062,-207.78700256347656 C137.97300720214844,-207.76400756835938 138.3070068359375,-207.4980010986328 138.3699951171875,-206.99200439453125 M137.89500427246094,-212.44900512695312 C138.06199645996094,-211.93600463867188 138.4949951171875,-210.95799255371094 139.19500732421875,-209.50900268554688 C138.6199951171875,-209.54800415039062 138.26300048828125,-209.86500549316406 138.09800720214844,-210.48199462890625 C137.93899536132812,-211.08799743652344 137.49099731445312,-211.91700744628906 136.78399658203125,-212.9429931640625 C137.37100219726562,-213.125 137.72999572753906,-212.95899963378906 137.89500427246094,-212.44900512695312 M136.88999938964844,-215.05799865722656 C136.88999938964844,-215.05799865722656 136.0290069580078,-215.11399841308594 136.0290069580078,-215.11399841308594 C136.0290069580078,-215.11399841308594 136.4409942626953,-217.80999755859375 136.4409942626953,-217.80999755859375 C136.4409942626953,-217.80999755859375 137.5570068359375,-217.75100708007812 137.5570068359375,-217.75100708007812 C137.5570068359375,-217.75100708007812 136.88999938964844,-215.05799865722656 136.88999938964844,-215.05799865722656z M174.96800231933594,-318.4880065917969 C178.947998046875,-316.8919982910156 181.47300720214844,-312.7330017089844 182.50799560546875,-306.052001953125 C182.56700134277344,-299.02301025390625 181.05599975585938,-292.3169860839844 177.94200134277344,-285.9209899902344 C174.8260040283203,-279.5249938964844 171.81700134277344,-273.18798828125 168.89599609375,-266.8949890136719 C169.26100158691406,-266.6679992675781 168.66299438476562,-262.77801513671875 167.11199951171875,-255.20799255371094 C165.55099487304688,-247.6490020751953 164.49200439453125,-241.9770050048828 163.95199584960938,-238.17999267578125 C164.30499267578125,-237.35499572753906 164.63600158691406,-236.33999633789062 164.95899963378906,-235.11300659179688 C165.2779998779297,-233.9010009765625 165.0030059814453,-233.7100067138672 164.08399963378906,-234.55499267578125 C162.86700439453125,-232.61199951171875 162.15499877929688,-230.3159942626953 161.9409942626953,-227.72000122070312 C161.75999450683594,-225.39599609375 161.4600067138672,-223.1490020751953 161.0590057373047,-221.00100708007812 C160.96499633789062,-220.49600219726562 160.70399475097656,-220.0590057373047 160.375,-219.66400146484375 C158.2899932861328,-217.16099548339844 158.02000427246094,-213.4530029296875 159.5449981689453,-208.53900146484375 C161.2050018310547,-203.21600341796875 160.6820068359375,-199.62600708007812 157.9510040283203,-197.7570037841797 C158.3159942626953,-197.52099609375 158.7790069580078,-197.23599243164062 159.32000732421875,-196.9219970703125 C159.88299560546875,-196.59300231933594 160.13299560546875,-195.9239959716797 160.0919952392578,-194.93299865722656 C160.4429931640625,-194.31399536132812 160.5279998779297,-191.8300018310547 160.33999633789062,-187.52200317382812 C160.156005859375,-183.21499633789062 159.7949981689453,-179.6649932861328 159.31500244140625,-176.8699951171875 C158.58099365234375,-177.5070037841797 158.0260009765625,-177.85000610351562 157.6490020751953,-177.85299682617188 C157.6490020751953,-177.85299682617188 158.81100463867188,-178.72000122070312 158.81100463867188,-178.72000122070312 C158.07699584960938,-179.33200073242188 156.93800354003906,-180.14700317382812 155.38400268554688,-181.13299560546875 C153.80499267578125,-182.1060028076172 152.87100219726562,-183.01600646972656 152.531005859375,-183.84300231933594 C152.33700561523438,-183.84300231933594 152,-183.7530059814453 151.51499938964844,-183.58799743652344 C151.03900146484375,-183.4080047607422 150.60000610351562,-183.11900329589844 150.20899963378906,-182.7550048828125 C151.47900390625,-181.45700073242188 152.25900268554688,-179.718994140625 152.5240020751953,-177.50599670410156 C152.343994140625,-177.51699829101562 151.39300537109375,-177.406005859375 149.6999969482422,-177.18499755859375 C147.98399353027344,-176.96099853515625 146.91700744628906,-176.66400146484375 146.5229949951172,-176.29100036621094 C145.88299560546875,-178.71400451660156 145.20199584960938,-181.63499450683594 144.50599670410156,-184.9739990234375 C143.7949981689453,-188.31900024414062 143.37600708007812,-190.4149932861328 143.21299743652344,-191.2310028076172 C143.21299743652344,-191.2310028076172 140.3939971923828,-209.72000122070312 140.3939971923828,-209.72000122070312 C140.36199951171875,-209.93299865722656 140.44700622558594,-210.12399291992188 140.60699462890625,-210.26800537109375 C141.7760009765625,-211.32000732421875 142.22999572753906,-213.5919952392578 141.92599487304688,-217.0850067138672 C141.625,-220.81399536132812 141.30999755859375,-223.49400329589844 141.00599670410156,-225.11700439453125 C140.82899475097656,-225.51699829101562 140.63900756835938,-226.4040069580078 140.40899658203125,-227.71299743652344 C140.18600463867188,-229.0279998779297 139.63400268554688,-230.41400146484375 138.74400329589844,-231.86399841308594 C137.91900634765625,-230.31399536132812 137.5919952392578,-228.21600341796875 137.77200317382812,-225.57899475097656 C137.9409942626953,-222.96099853515625 137.69200134277344,-220.7519989013672 137.06199645996094,-218.97799682617188 C136.95599365234375,-221.20599365234375 136.9199981689453,-223.3090057373047 136.90899658203125,-225.3249969482422 C136.88800048828125,-227.33099365234375 136.4550018310547,-229.0570068359375 135.57899475097656,-230.5050048828125 C136.07000732421875,-233.3090057373047 136.53799438476562,-236.3159942626953 136.96200561523438,-239.49400329589844 C137.3769989013672,-242.69900512695312 138.03900146484375,-245.87899780273438 138.9409942626953,-249.03900146484375 C139.08900451660156,-248.43499755859375 139.20899963378906,-247.9219970703125 139.28799438476562,-247.51800537109375 C139.36199951171875,-247.10899353027344 139.66099548339844,-246.39100646972656 140.19000244140625,-245.3679962158203 C141.1750030517578,-246.3249969482422 141.75100708007812,-247.60400390625 141.91200256347656,-249.2030029296875 C142.08299255371094,-250.7949981689453 141.08099365234375,-250.94400024414062 138.95399475097656,-249.63699340820312 C138.4040069580078,-254.31199645996094 138.7220001220703,-260.5780029296875 139.91200256347656,-268.4590148925781 C141.10000610351562,-276.3399963378906 141.5260009765625,-282.5989990234375 141.16000366210938,-287.2640075683594 C142.9409942626953,-289.1780090332031 144.177001953125,-292.3320007324219 144.843994140625,-296.72100830078125 C145.4980010986328,-301.11199951171875 146.59500122070312,-305.88299560546875 148.1510009765625,-311.052001953125 C148.56300354003906,-312.0270080566406 148.70399475097656,-313.1310119628906 148.57899475097656,-314.34600830078125 C148.4340057373047,-315.5580139160156 148.40699768066406,-316.7699890136719 148.4510040283203,-317.9599914550781 C149.05799865722656,-318.9389953613281 149.677001953125,-320.1189880371094 150.30099487304688,-321.50299072265625 C150.9409942626953,-322.87298583984375 151.65899658203125,-324.14801025390625 152.46499633789062,-325.30999755859375 C153.21400451660156,-325.27099609375 154.35299682617188,-325.41900634765625 155.87399291992188,-325.76300048828125 C157.41600036621094,-326.0610046386719 158.26600646972656,-326.5360107421875 158.50100708007812,-327.1260070800781 C165.47900390625,-322.97698974609375 170.9770050048828,-320.0780029296875 174.96800231933594,-318.4880065917969"></path></g></g><g style="display: block;" transform="matrix(1,0,0,1,0,630)" opacity="1"><g opacity="1" transform="matrix(1,0,0,1,930.7410278320312,268.7380065917969)"><path fill="rgb(216,38,131)" fill-opacity="1" d=" M-2.825000047683716,-26.687000274658203 C-4.820000171661377,-40.64899826049805 -32.555999755859375,-48.98699951171875 -34.62099838256836,-36.391998291015625 C-36.68600082397461,-23.797000885009766 -44.32600021362305,1.187000036239624 -46.183998107910156,20.594999313354492 C-48.04199981689453,40.00299835205078 -19.961999893188477,47.229000091552734 1.0980000495910645,39.59000015258789 C22.158000946044922,31.951000213623047 48.58700180053711,24.51799964904785 46.10900115966797,-4.59499979019165 C43.63100051879883,-33.70800018310547 19.26799964904785,-31.229999542236328 12.041000366210938,-29.371999740600586 C4.814000129699707,-27.513999938964844 4.609000205993652,-24.82900047302246 10.803000450134277,-17.190000534057617 C16.996999740600586,-9.550999641418457 16.170000076293945,5.521999835968018 4.607999801635742,10.890000343322754 C-6.953999996185303,16.257999420166016 -23.05900001525879,19.356000900268555 -15.831999778747559,4.489999771118164 C-8.604999542236328,-10.37600040435791 -0.7599999904632568,-12.234000205993652 -2.825000047683716,-26.687000274658203z"></path></g><g opacity="1" transform="matrix(1,0,0,1,968.0020141601562,349.9200134277344)"><path fill="rgb(216,38,131)" fill-opacity="1" d=" M-21.29800033569336,7.817999839782715 C-21.29800033569336,7.817999839782715 -28.523000717163086,-20.944000244140625 -35.542999267578125,-24.041000366210938 C-42.5629997253418,-27.13800048828125 -46.27899932861328,-26.875999450683594 -52.266998291015625,-27.729999542236328 C-58.255001068115234,-28.583999633789062 -71.88200378417969,-26.725000381469727 -63.00400161743164,-15.576000213623047 C-54.125999450683594,-4.427000045776367 -48.75699996948242,10.531999588012695 -44.62799835205078,14.20199966430664 C-44.62799835205078,14.20199966430664 -70.8489990234375,20.350000381469727 -76.83699798583984,32.11899948120117 C-82.82499694824219,43.88800048828125 -68.99099731445312,56.481998443603516 -35.542999267578125,44.91999816894531 C-2.0950000286102295,33.358001708984375 43.742000579833984,13.932999610900879 61.9119987487793,9.914999961853027 C80.08200073242188,5.896999835968018 80.90699768066406,2.5940001010894775 74.71299743652344,-6.078000068664551 C68.51899719238281,-14.75 49.11000061035156,-15.96500015258789 39.819000244140625,-10.711999893188477 C30.527999877929688,-5.459000110626221 21.23699951171875,-2.234999895095825 21.23699951171875,-2.234999895095825 C21.23699951171875,-2.234999895095825 20.410999298095703,-29.822999954223633 16.281999588012695,-41.79800033569336 C12.152999877929688,-53.77299880981445 -10.5600004196167,-50.263999938964844 -18.4060001373291,-41.59199905395508 C-26.25200080871582,-32.91999816894531 -17.579999923706055,-35.1349983215332 -11.798999786376953,-27.729999542236328 C-6.01800012588501,-20.325000762939453 -6.63700008392334,3.058000087738037 -6.63700008392334,3.058000087738037 C-6.63700008392334,3.058000087738037 -21.29800033569336,7.817999839782715 -21.29800033569336,7.817999839782715z"></path></g></g><g style="display: block;" transform="matrix(1,0,0,1,0,630)" opacity="0.6836558756915696"><g opacity="1" transform="matrix(1,0,0,1,807.2689819335938,347.4849853515625)"><path fill="rgb(216,38,131)" fill-opacity="1" d=" M-14.79800033569336,1.38100004196167 C-14.79800033569336,1.38100004196167 -32.00299835205078,-19.267000198364258 -45.768001556396484,-21.055999755859375 C-59.53300094604492,-22.844999313354492 -65.86499786376953,-13.072999954223633 -55.81700134277344,-4.814000129699707 C-45.76900100708008,3.444999933242798 -33.930999755859375,18.86199951171875 -25.534000396728516,40.61000061035156 C-17.136999130249023,62.358001708984375 -13.972000122070312,69.65399932861328 -3.234999895095825,63.321998596191406 C7.501999855041504,56.9900016784668 -0.0689999982714653,38.68299865722656 -3.234999895095825,29.461000442504883 C-6.401000022888184,20.23900032043457 -8.602999687194824,12.255000114440918 -8.602999687194824,12.255000114440918 C-8.602999687194824,12.255000114440918 6.401000022888184,0.004000000189989805 9.015999794006348,-4.538000106811523 C9.015999794006348,-4.538000106811523 17.27400016784668,-4.538000106811523 25.67099952697754,27.94700050354004 C34.06800079345703,60.43199920654297 31.31399917602539,78.05000305175781 48.93299865722656,75.02200317382812 C66.552001953125,71.99400329589844 60.770999908447266,30.700000762939453 54.9900016784668,12.529999732971191 C49.20899963378906,-5.639999866485596 26.222000122070312,-48.861000061035156 12.456999778747559,-66.61799621582031 C-1.3079999685287476,-84.375 -17.687999725341797,-72.81199645996094 -14.9350004196167,-52.165000915527344 C-12.182000160217285,-31.51799964904785 -1.0329999923706055,-12.9350004196167 -1.0329999923706055,-12.9350004196167 C-1.0329999923706055,-12.9350004196167 -14.79800033569336,1.38100004196167 -14.79800033569336,1.38100004196167z"></path></g><g opacity="1" transform="matrix(1,0,0,1,682.030029296875,321.1300048828125)"><path fill="rgb(216,38,131)" fill-opacity="1" d=" M14.637999534606934,15.760000228881836 C2.989000082015991,18.43600082397461 -5.321000099182129,12.456999778747559 -11.928000450134277,5.298999786376953 C-18.53499984741211,-1.8589999675750732 -33.53799819946289,-3.234999895095825 -20.73699951171875,-11.218999862670898 C-7.935999870300293,-19.202999114990234 11.472999572753906,-17.992000579833984 20.006999969482422,-7.501999855041504 C30.819000244140625,5.789000034332275 24.823999404907227,13.420000076293945 14.637999534606934,15.760000228881836z"></path></g><g opacity="1" transform="matrix(1,0,0,1,720.5139770507812,399.489013671875)"><path fill="rgb(216,38,131)" fill-opacity="1" d=" M22.266000747680664,-26.259000778198242 C22.266000747680664,-26.259000778198242 27.611000061035156,-45.54199981689453 10.840999603271484,-50.48500061035156 C-2.2360000610351562,-54.3390007019043 -8.234000205993652,-47.5 -15.173999786376953,-42.22700119018555 C-26.208999633789062,-33.84199905395508 -28.113000869750977,-29.839000701904297 -36.23400115966797,-26.53499984741211 C-44.35499954223633,-23.231000900268555 -46.97100067138672,-29.562999725341797 -50.4119987487793,-22.26799964904785 C-53.85300064086914,-14.972999572753906 -55.22999954223633,-4.511000156402588 -42.29100036621094,2.509000062942505 C-29.351999282836914,9.529000282287598 -16.773000717163086,-3.134999990463257 -12.73900032043457,-6.988999843597412 C-8.704999923706055,-10.843000411987305 -7.466000080108643,-9.329000473022461 -8.979999542236328,4.0229997634887695 C-10.494000434875488,17.375 -13.65999984741211,54.952999114990234 11.529999732971191,51.374000549316406 C36.720001220703125,47.79499816894531 51.99800109863281,15.998000144958496 52.68600082397461,0.8569999933242798 C53.374000549316406,-14.284000396728516 50.34600067138672,-33.00400161743164 22.266000747680664,-26.259000778198242z M29.56100082397461,7.876999855041504 C24.881000518798828,19.027000427246094 18.687000274658203,16.27400016784668 19.926000595092773,8.70300006866455 C21.165000915527344,1.1319999694824219 19.926000595092773,-4.923999786376953 19.926000595092773,-4.923999786376953 C30.799999237060547,-5.888000011444092 34.24100112915039,-3.2730000019073486 29.56100082397461,7.876999855041504z"></path></g></g><g style="display: block;" transform="matrix(1,0,0,1,0,630)" opacity="0.9176080345858105"><g opacity="1" transform="matrix(1,0,0,1,548.47998046875,453.3320007324219)"><path fill="rgb(216,38,131)" fill-opacity="1" d=" M58.02899932861328,-19.951000213623047 C58.02899932861328,-19.951000213623047 37.65700149536133,-44.45199966430664 25.957000732421875,-67.85199737548828 C14.256999969482422,-91.25199890136719 -3.2239999771118164,-89.46299743652344 -12.583999633789062,-87.53600311279297 C-21.944000244140625,-85.60900115966797 -17.402000427246094,-75.9739990234375 -9.281000137329102,-64.13600158691406 C-1.159999966621399,-52.29800033569336 19.76300048828125,-26.006999969482422 20.726999282836914,-16.371999740600586 C21.69099998474121,-6.736999988555908 13.569000244140625,23.820999145507812 8.75100040435791,36.89799880981445 C3.933000087738037,49.974998474121094 -3.7750000953674316,56.856998443603516 -8.729999542236328,45.983001708984375 C-13.6850004196167,35.10900115966797 -13.54699993133545,26.160999298095703 -6.664999961853027,13.635000228881836 C0.21699999272823334,1.1089999675750732 -3.9119999408721924,-6.185999870300293 -7.9039998054504395,-5.2220001220703125 C-11.895999908447266,-4.257999897003174 -15.475000381469727,-3.9830000400543213 -15.475000381469727,-3.9830000400543213 C-15.475000381469727,-3.9830000400543213 -11.345999717712402,-14.994999885559082 -25.24799919128418,-27.93400001525879 C-39.150001525878906,-40.87300109863281 -50.849998474121094,-49.68299865722656 -63.513999938964844,-40.185001373291016 C-76.1780014038086,-30.687000274658203 -95.7239990234375,-15.821000099182129 -103.56999969482422,-9.076000213623047 C-111.41600036621094,-2.3310000896453857 -106.87300109863281,4 -92.28199768066406,2.3480000495910645 C-77.69100189208984,0.6959999799728394 -73.42400360107422,-0.9559999704360962 -68.46900177001953,-6.323999881744385 C-63.513999938964844,-11.692000389099121 -54.84299850463867,-15.682999610900879 -49.19900131225586,-9.21399974822998 C-43.55500030517578,-2.744999885559082 -43.69300079345703,2.622999906539917 -54.15399932861328,19.141000747680664 C-64.61499786376953,35.659000396728516 -82.9229965209961,46.80799865722656 -67.91899871826172,48.459999084472656 C-52.915000915527344,50.11199951171875 -43.624000549316406,45.362998962402344 -43.624000549316406,45.362998962402344 C-43.624000549316406,45.362998962402344 -28.690000534057617,86.31400299072266 -13.27299976348877,88.10299682617188 C2.1440000534057617,89.89199829101562 6.136000156402588,87.69000244140625 18.66200065612793,61.5369987487793 C31.187999725341797,35.38399887084961 39.58399963378906,12.190999984741211 40.40999984741211,-0.4729999899864197 C40.40999984741211,-0.4729999899864197 60.231998443603516,37.31100082397461 68.35299682617188,26.711999893188477 C76.4739990234375,16.113000869750977 96.70899963378906,-8.25 103.59100341796875,-17.74799919128418 C110.4729995727539,-27.246000289916992 106.61900329589844,-36.05500030517578 102.62699890136719,-41.9739990234375 C98.63500213623047,-47.893001556396484 87.0719985961914,-50.09600067138672 78.26300048828125,-40.323001861572266 C69.4540023803711,-30.549999237060547 58.02899932861328,-19.951000213623047 58.02899932861328,-19.951000213623047z"></path></g><g opacity="1" transform="matrix(1,0,0,1,659.9530029296875,529.8569946289062)"><path fill="rgb(216,38,131)" fill-opacity="1" d=" M22.4689998626709,-44.994998931884766 C3.061000108718872,-52.428001403808594 -12.218000411987305,-43.75699996948242 -21.509000778198242,-36.117000579833984 C-30.799999237060547,-28.47800064086914 -35.54999923706055,-25.586999893188477 -35.54999923706055,-25.586999893188477 C-35.137001037597656,-5.353000164031982 -40.09199905395508,36.768001556396484 -26.46500015258789,45.645999908447266 C-12.838000297546387,54.52399826049805 11.319999694824219,34.90999984741211 24.94700050354004,12.817000389099121 C38.57400131225586,-9.274999618530273 41.87699890136719,-37.5620002746582 22.4689998626709,-44.994998931884766z M-11.598999977111816,18.804000854492188 C-18.826000213623047,22.107999801635742 -11.1850004196167,-9.482000350952148 -10.152999877929688,-18.773000717163086 C-10.152999877929688,-18.773000717163086 6.363999843597412,-23.52199935913086 7.791999816894531,-12.166000366210938 C9.220000267028809,-0.8100000023841858 -4.372000217437744,15.5 -11.598999977111816,18.804000854492188z"></path></g></g><g style="display: block;" transform="matrix(1,0,0,1,0,630.0010375976562)" opacity="0.9985461189402282"><g opacity="1" transform="matrix(1,0,0,1,452.7569885253906,599.531005859375)"><path fill="rgb(216,38,131)" fill-opacity="1" d=" M-86.03099822998047,-57.625999450683594 C-93.17400360107422,-48.505001068115234 -78.5979995727539,-14.324000358581543 -71.99099731445312,-13.91100025177002 C-65.38400268554688,-13.498000144958496 -53.821998596191406,-17.21500015258789 -30.69700050354004,-3.174999952316284 C-7.572000026702881,10.864999771118164 -1.7910000085830688,17.472999572753906 4.815999984741211,31.100000381469727 C11.42300033569336,44.72700119018555 23.39900016784668,40.183998107910156 34.96099853515625,50.095001220703125 C46.52299880981445,60.00600051879883 61.801998138427734,74.04499816894531 78.31999969482422,61.24399948120117 C94.83799743652344,48.44300079345703 88.64399719238281,45.553001403808594 70.88700103759766,31.100000381469727 C53.130001068115234,16.64699935913086 8.532999992370605,-20.104999542236328 8.532999992370605,-20.104999542236328 C8.532999992370605,-20.104999542236328 12.25,-32.90700149536133 23.39900016784668,-46.12099838256836 C34.54800033569336,-59.334999084472656 18.44300079345703,-71.30999755859375 4.4029998779296875,-64.29000091552734 C-9.63700008392334,-57.27000045776367 -9.223999977111816,-32.90700149536133 -9.223999977111816,-32.90700149536133 C-9.223999977111816,-32.90700149536133 -72.81700134277344,-74.4990005493164 -86.03099822998047,-57.625999450683594z"></path></g><g opacity="1" transform="matrix(1,0,0,1,389.2669982910156,671.4959716796875)"><path fill="rgb(216,38,131)" fill-opacity="1" d=" M-6.0229997634887695,-21.04400062561035 C-6.0229997634887695,-21.04400062561035 -10.5649995803833,-49.94900131225586 -35.755001068115234,-52.84000015258789 C-60.94499969482422,-55.73099899291992 -45.66600036621094,-26.825000762939453 -35.755001068115234,-8.243000030517578 C-25.8439998626709,10.33899974822998 -12.217000007629395,60.71900177001953 8.843000411987305,52.047000885009766 C29.902999877929688,43.375 23.708999633789062,25.204999923706055 15.86299991607666,13.229999542236328 C8.017000198364258,1.2549999952316284 6.7779998779296875,-2.128999948501587 15.449999809265137,-6.8379998207092285 C24.121999740600586,-11.54699993133545 47.24700164794922,-1.6360000371932983 49.3120002746582,-21.8700008392334 C51.37699890136719,-42.104000091552734 35.27199935913086,-45.40700149536133 21.23200035095215,-39.2130012512207 C7.191999912261963,-33.01900100708008 -6.0229997634887695,-21.04400062561035 -6.0229997634887695,-21.04400062561035z"></path></g></g><g style="display: none;"><g><path></path></g></g><g style="display: none;"><g><path></path></g><g><path></path></g></g><g style="display: none;"><g><path></path></g><g><path></path></g><g><path></path></g></g><g style="display: none;"><g><path></path></g><g><path></path></g></g><g style="display: none;"><g><path></path></g><g><path></path></g></g><g style="display: none;"><g><path></path></g></g><g style="display: none;"><g><path></path></g><g><path></path></g></g><g style="display: none;"><g><path></path></g><g><path></path></g><g><path></path></g></g><g style="display: none;"><g><path></path></g><g><path></path></g></g><g style="display: none;"><g><path></path></g><g><path></path></g></g><g transform="matrix(1,0,0,1,945.8109741210938,1254.3280029296875)" opacity="1" style="display: block;"><g opacity="1" transform="matrix(1,0,0,1,0,0)"><path fill="rgb(20,87,155)" fill-opacity="1" d=" M-168.4810028076172,-32.16999816894531 C-168.4810028076172,-32.16999816894531 -121.25700378417969,-32.16999816894531 -121.25700378417969,-32.16999816894531 C-110.79499816894531,-32.16999816894531 -104.59600067138672,-20.466999053955078 -110.47200012207031,-11.810999870300293 C-110.47200012207031,-11.810999870300293 -157.22900390625,57.064998626708984 -157.22900390625,57.064998626708984 C-163.73300170898438,66.64600372314453 -156.87100219726562,79.5999984741211 -145.2899932861328,79.5999984741211 C-145.2899932861328,79.5999984741211 -115.50700378417969,79.5999984741211 -115.50700378417969,79.5999984741211 C-106.96499633789062,79.5999984741211 -98.9729995727539,75.38700103759766 -94.14700317382812,68.33999633789062 C-94.14700317382812,68.33999633789062 -31.18000030517578,-23.600000381469727 -31.18000030517578,-23.600000381469727 C-27.506999969482422,-28.96299934387207 -21.423999786376953,-32.16999816894531 -14.923999786376953,-32.16999816894531 C-14.923999786376953,-32.16999816894531 2.811000108718872,-32.16999816894531 2.811000108718872,-32.16999816894531 C9.310999870300293,-32.16999816894531 15.394000053405762,-28.96299934387207 19.066999435424805,-23.600000381469727 C19.066999435424805,-23.600000381469727 82.03500366210938,68.34100341796875 82.03500366210938,68.34100341796875 C86.86100006103516,75.38800048828125 94.85299682617188,79.5999984741211 103.39399719238281,79.5999984741211 C103.39399719238281,79.5999984741211 133.17599487304688,79.5999984741211 133.17599487304688,79.5999984741211 C144.7570037841797,79.5999984741211 151.6199951171875,66.64600372314453 145.11599731445312,57.064998626708984 C145.11599731445312,57.064998626708984 98.35800170898438,-11.810999870300293 98.35800170898438,-11.810999870300293 C92.48200225830078,-20.466999053955078 98.68199920654297,-32.16999816894531 109.14399719238281,-32.16999816894531 C109.14399719238281,-32.16999816894531 168.4810028076172,-32.16999816894531 168.4810028076172,-32.16999816894531 C168.4810028076172,-32.16999816894531 168.4810028076172,-79.5999984741211 168.4810028076172,-79.5999984741211 C168.4810028076172,-79.5999984741211 -168.4810028076172,-79.5999984741211 -168.4810028076172,-79.5999984741211 C-168.4810028076172,-79.5999984741211 -168.4810028076172,-32.16999816894531 -168.4810028076172,-32.16999816894531z"></path></g></g><g transform="matrix(1,0,0,1,960,1170)" opacity="1" style="display: block;"><g opacity="1" transform="matrix(1,0,0,1,0,0)"><path fill="rgb(20,87,155)" fill-opacity="1" d=" M-200.9770050048828,219.39999389648438 C-200.9770050048828,219.39999389648438 -45.435001373291016,219.39999389648438 -45.435001373291016,219.39999389648438 C-45.435001373291016,219.39999389648438 -45.435001373291016,230.0679931640625 -45.435001373291016,230.0679931640625 C-45.435001373291016,235.01800537109375 -44.01100158691406,239.62399291992188 -41.58399963378906,243.54400634765625 C-115.28299713134766,247.7169952392578 -172.0189971923828,274.3340148925781 -172.0189971923828,327.38800048828125 C-172.0189971923828,385.4119873046875 -104.16799926757812,411.8320007324219 -20.4689998626709,411.8320007324219 C63.22999954223633,411.8320007324219 131.08099365234375,385.4119873046875 131.08099365234375,327.38800048828125 C131.08099365234375,278.6549987792969 83.21099853515625,252.22500610351562 18.29599952697754,245.0070037841797 C18.29599952697754,245.0070037841797 18.29599952697754,244.9980010986328 18.29599952697754,244.9980010986328 C18.29599952697754,244.9980010986328 18.0939998626709,244.77499389648438 18.0939998626709,244.77499389648438 C11.555000305175781,237.5500030517578 11.642999649047852,226.52000427246094 18.29599952697754,219.39999389648438 C18.29599952697754,219.39999389648438 154.29200744628906,219.39999389648438 154.29200744628906,219.39999389648438 C154.29200744628906,219.39999389648438 154.29200744628906,179.34500122070312 154.29200744628906,179.34500122070312 C154.29200744628906,179.34500122070312 -200.9770050048828,179.34500122070312 -200.9770050048828,179.34500122070312 C-200.9770050048828,179.34500122070312 -200.9770050048828,219.39999389648438 -200.9770050048828,219.39999389648438z M64.28700256347656,327.38800048828125 C64.28700256347656,339.3340148925781 57.77799987792969,349.1610107421875 46.32500076293945,357.0429992675781 C31.368999481201172,367.3370056152344 8.128000259399414,375.906005859375 -20.4689998626709,375.906005859375 C-49.066001892089844,375.906005859375 -72.30699920654297,367.3370056152344 -87.26300048828125,357.0429992675781 C-98.71600341796875,349.1610107421875 -105.22599792480469,339.3340148925781 -105.22599792480469,327.38800048828125 C-105.22599792480469,315.4419860839844 -98.71600341796875,305.614990234375 -87.26300048828125,297.7330017089844 C-72.30699920654297,287.4389953613281 -53.19499969482422,277.968994140625 -20.4689998626709,277.968994140625 C12.255999565124512,277.968994140625 31.368999481201172,287.4389953613281 46.32500076293945,297.7330017089844 C57.77799987792969,305.614990234375 64.28700256347656,315.4419860839844 64.28700256347656,327.38800048828125z"></path></g></g><g transform="matrix(1,0,0,1,1345.4029541015625,1377.14404296875)" opacity="1" style="display: block;"><g opacity="1" transform="matrix(1,0,0,1,0,0)"><path fill="rgb(20,87,155)" fill-opacity="1" d=" M143.8419952392578,-15.41100025177002 C143.8419952392578,-15.41100025177002 143.8419952392578,-149.47999572753906 143.8419952392578,-149.47999572753906 C143.8419952392578,-149.47999572753906 143.8419952392578,-161.08299255371094 143.8419952392578,-161.08299255371094 C143.8419952392578,-183.91099548339844 125.33599853515625,-202.41700744628906 102.50800323486328,-202.41700744628906 C102.50800323486328,-202.41700744628906 84.37799835205078,-202.41700744628906 84.37799835205078,-202.41700744628906 C84.37799835205078,-202.41700744628906 -129.62399291992188,-202.41700744628906 -129.62399291992188,-202.41700744628906 C-140.21299743652344,-202.41700744628906 -148.79800415039062,-193.83299255371094 -148.79800415039062,-183.24400329589844 C-148.79800415039062,-183.24400329589844 -148.79800415039062,-179.89999389648438 -148.79800415039062,-179.89999389648438 C-148.79800415039062,-163.10000610351562 -135.17799377441406,-149.47999572753906 -118.37799835205078,-149.47999572753906 C-118.37799835205078,-149.47999572753906 54.37099838256836,-149.47999572753906 54.37099838256836,-149.47999572753906 C70.94300079345703,-149.47999572753906 84.37799835205078,-136.04600524902344 84.37799835205078,-119.4729995727539 C84.37799835205078,-119.4729995727539 84.37799835205078,-35.231998443603516 84.37799835205078,-35.231998443603516 C84.37799835205078,-27.41200065612793 87.69000244140625,-20.381000518798828 92.96499633789062,-15.41100025177002 C92.96499633789062,-15.41100025177002 -175.91400146484375,-15.41100025177002 -175.91400146484375,-15.41100025177002 C-175.91400146484375,-15.41100025177002 -175.91400146484375,29.600000381469727 -175.91400146484375,29.600000381469727 C-175.91400146484375,29.600000381469727 -31.17799949645996,29.600000381469727 -31.17799949645996,29.600000381469727 C-31.17799949645996,29.600000381469727 -31.17799949645996,202.41700744628906 -31.17799949645996,202.41700744628906 C-31.17799949645996,202.41700744628906 30.558000564575195,202.41700744628906 30.558000564575195,202.41700744628906 C30.558000564575195,202.41700744628906 30.558000564575195,54.99599838256836 30.558000564575195,54.99599838256836 C30.558000564575195,40.970001220703125 41.928001403808594,29.600000381469727 55.95399856567383,29.600000381469727 C55.95399856567383,29.600000381469727 175.91400146484375,29.600000381469727 175.91400146484375,29.600000381469727 C175.91400146484375,29.600000381469727 175.91400146484375,-15.41100025177002 175.91400146484375,-15.41100025177002 C175.91400146484375,-15.41100025177002 143.8419952392578,-15.41100025177002 143.8419952392578,-15.41100025177002z"></path></g></g></g></g></svg>